<svg xmlns="http://www.w3.org/2000/svg" xmlns:xlink="http://www.w3.org/1999/xlink" viewBox="0 0 488.8 451.9"><defs><style>.cls-1{fill:none;}.cls-2{fill:#0a262b;}.cls-3{fill:#fcc443;}.cls-4{fill:#f5f1e8;}.cls-5{fill:#db413b;}.cls-6{fill:#c6c5c0;}.cls-7{fill:#a8a8a2;}.cls-8{fill:#36393b;}.cls-9{fill:#c73636;}.cls-10{fill:#d73534;}.cls-11{fill:#fff;}.cls-12{fill:#f08525;}.cls-13{fill:#d9d8d8;}.cls-14{fill:url(#gradient-blue);}.cls-15{fill:url(#linear-gradient);}.cls-16{fill:#0069a8;}.cls-17{fill:url(#gradient-blue-2);}.cls-18{fill:#666568;}.cls-19{fill:url(#gradient-blue-3);}.cls-20{fill:url(#gradient-red);}</style><linearGradient id="gradient-blue" x1="354.01" y1="279.32" x2="344.6" y2="323.79" gradientUnits="userSpaceOnUse"><stop offset="0" stop-color="#0069a8"/><stop offset="1" stop-color="#00914e"/></linearGradient><linearGradient id="linear-gradient" x1="102.84" y1="209.47" x2="92.63" y2="221.47" xlink:href="#gradient-blue"/><linearGradient id="gradient-blue-2" x1="110.7" y1="219.73" x2="102.33" y2="279.02" xlink:href="#gradient-blue"/><linearGradient id="gradient-blue-3" x1="80.81" y1="229.1" x2="79.03" y2="254.02" xlink:href="#gradient-blue"/><linearGradient id="gradient-red" x1="117.06" y1="186.19" x2="124.47" y2="164.81" gradientUnits="userSpaceOnUse"><stop offset="0" stop-color="#ef8162"/><stop offset="1" stop-color="#d73534"/></linearGradient></defs><title>tuktuk-wapuu</title><g id="Layer_2" data-name="Layer 2"><g id="adjusted-outline"><path class="cls-1" d="M171.1,407c-2.33.43-4.65.88-7,1.32l2.95,2q3.9-.61,7.83-1.17C173.64,408.39,172.37,407.69,171.1,407Z"/><path class="cls-1" d="M173.46,403.52l-3.05-1.8-2.06.39q1.64.86,3.27,1.74Z"/><path class="cls-1" d="M281.4,135.3a37.72,37.72,0,0,0,5.9-.6l-5.9-.3Z"/><path class="cls-1" d="M179.16,400.09c-1.43.26-2.87.51-4.3.78l3.11,1.84c1.47-.26,2.93-.53,4.4-.78Z"/><path class="cls-1" d="M195,110.2l-.6,1.7a18.88,18.88,0,0,0-.6,1.8c1.4-.5,3-1.1,4.8-1.9s4-1.5,6.2-2.3a16.9,16.9,0,0,1,1.2-4.4,2.51,2.51,0,0,0,.4-.7c-3-.7-6-1.3-9-1.9A78,78,0,0,1,195,110.2Z"/><path class="cls-1" d="M416.2,142.9l-4.8,1.4a2.65,2.65,0,0,1,.5.6C413.2,144.3,414.6,143.6,416.2,142.9Z"/><path class="cls-1" d="M201.75,409.6l4.33-.77-5,.39Z"/><path class="cls-1" d="M191.1,403.48l5.42,3.12q10.26-.94,20.55-1.41l-9.53-4.36Q199.32,402.11,191.1,403.48Z"/><path class="cls-1" d="M146.1,101.4a104.8,104.8,0,0,1,18,1.6c1.2.2,2.4.4,3.6.7h.2c3.8,1,7.3,2,10.6,3.2a25.9,25.9,0,0,0,1-3c-.3-.2-.7-.3-1-.5-4.3-2.2-12-4.8-24.2-4.8-2.6,0-5.4.2-8.2.4a96.48,96.48,0,0,0-22.4,4.7A130.94,130.94,0,0,1,146.1,101.4Z"/><path class="cls-1" d="M182.08,413.3c-1-.59-2-1.17-2.93-1.74-2.79.36-5.57.76-8.36,1.18l3.26,2.15C176.73,414.35,179.4,413.82,182.08,413.3Z"/><path class="cls-1" d="M196.39,413.63l6.9,4.08,5.63-.54-7.71-4.42Z"/><path class="cls-1" d="M175.78,406.15c1.34.76,2.67,1.52,4,2.3l1.61-.22-4-2.37Z"/><path class="cls-1" d="M212.94,400l10.77,4.94,3.29-.1q-5.4-2.47-10.6-5.37Z"/><path class="cls-1" d="M222.58,389.92q-7.41.29-14.81.77c.59.4,1.18.81,1.79,1.2Q216.07,390.87,222.58,389.92Z"/><path class="cls-1" d="M184,411c.82.49,1.63,1,2.45,1.5l1.56-.3-2.36-1.4Z"/><path class="cls-1" d="M203.83,395.83l4.14,1.9,4.26-.65c-1.11-.67-2.21-1.36-3.31-2.05Z"/><path class="cls-1" d="M181.92,405.05l4.39,2.61c1.69-.2,3.38-.38,5.07-.56l-4.92-2.82Z"/><path class="cls-1" d="M205.2,392.57c-.77-.52-1.54-1-2.3-1.56q-4.1.3-8.18.64l4.24,2Z"/><path class="cls-1" d="M166.9,404.73,163.59,403,158,404.15l2.63,1.77Z"/><path class="cls-1" d="M245.3,186a82.65,82.65,0,0,1,14.9-15.8,338.66,338.66,0,0,0,1.6-35.3,30.36,30.36,0,0,0-8.2,2.4,9.51,9.51,0,0,1-5.7,3.7,15,15,0,0,1-3.7.5h-.5c-4.6,0-9.6-1.6-13.3-3.2a69.22,69.22,0,0,1-9.3.6h-.5a206.18,206.18,0,0,1,13.6,21A143,143,0,0,1,245.3,186Z"/><path class="cls-1" d="M169.91,415.75l-3.53-2.34c-2.74.44-5.46.9-8.19,1.39l4,2.56C164.78,416.81,167.35,416.28,169.91,415.75Z"/><path class="cls-1" d="M198.54,396.71q-7.41,1.23-14.8,2.54l3.28,1.89q7.78-1.33,15.58-2.57Z"/><path class="cls-1" d="M146.14,406.57c.8.58,1.59,1.15,2.4,1.72,2.62-.53,5.25-1,7.88-1.56L153.81,405C151.25,405.5,148.7,406,146.14,406.57Z"/><path class="cls-1" d="M162.71,411l-2.79-1.88c-2.65.51-5.3,1-7.95,1.57.86.59,1.74,1.17,2.61,1.75Q158.64,411.67,162.71,411Z"/><path class="cls-1" d="M197.18,410.43l-1.32-.75c-1.76.16-3.51.33-5.27.52l1.87,1.1Z"/><path class="cls-1" d="M190.18,414.79c1.9,1.21,3.8,2.44,5.68,3.69l2.42-.25-6.37-3.77Z"/><path class="cls-1" d="M166.52,399.4l-6.36-3.77-3.66.56c2.52,1.19,5,2.42,7.54,3.69Z"/><path class="cls-1" d="M175.13,397.77l-5.89-3.38c-1.44.18-2.87.39-4.31.58l6,3.59Z"/><path class="cls-1" d="M159.23,400.83q-2.67-1.31-5.36-2.57l-1.09-.52-1.55-.74-3,.5c2.07,1.43,4.15,2.87,6.23,4.29C156,401.46,157.64,401.15,159.23,400.83Z"/><path class="cls-1" d="M142.18,407.42c-2.63.56-5.27,1.13-7.9,1.71l2.15,1.65c2.7-.57,5.4-1.12,8.1-1.67Z"/><path class="cls-1" d="M150.38,402.63,144,398.22c-2.42.42-4.83.86-7.24,1.3,2,1.59,4.09,3.15,6.16,4.68C145.38,403.66,147.88,403.15,150.38,402.63Z"/><path class="cls-1" d="M153.93,415.6q-4.47.84-8.93,1.77l3.8,2.92c3.07-.69,6.14-1.36,9.22-2C156.65,417.38,155.28,416.5,153.93,415.6Z"/><path class="cls-1" d="M147.88,411.48l-8.31,1.71,2.3,1.77q4.24-.91,8.5-1.75Z"/><path class="cls-1" d="M165.93,419.64q1.89,1.14,3.79,2.25,3.92-.58,7.85-1.13l-4.12-2.68C170.94,418.59,168.44,419.11,165.93,419.64Z"/><path class="cls-1" d="M132.8,400.26c-2.65.51-5.3,1-8,1.58.61.5,1.24,1,1.86,1.47l4.48,3.44q3.88-.87,7.79-1.71Q135.86,402.69,132.8,400.26Z"/><path class="cls-1" d="M193.67,394.47l-5-2.27c-4.83.47-9.67,1-14.49,1.58l5.5,3.16Q186.69,395.67,193.67,394.47Z"/><path class="cls-1" d="M151.9,422.67l2.22,1.71c3.62-.62,7.25-1.23,10.89-1.79l-3.35-2Q156.77,421.59,151.9,422.67Z"/><path class="cls-1" d="M421.1,269.5c9.3-6.2,16.8-13.7,21.6-21.8,6.8-11.1,7.2-22.5,1.3-32a52.57,52.57,0,0,1-5.2-11A207.41,207.41,0,0,1,426.6,257C425.1,261,423.2,265.1,421.1,269.5Z"/><path class="cls-1" d="M177.65,417.24l4.49,2.91c3-.4,6.05-.77,9.08-1.13-1.77-1.15-3.56-2.29-5.35-3.4Q181.76,416.42,177.65,417.24Z"/><path class="cls-2" d="M486.9,199.8c-3.1-14.1-9.4-24.6-17.4-28.9a27.15,27.15,0,0,0-12.8-3.5,19,19,0,0,0-13.4,5.4,20.82,20.82,0,0,0-3.2,4c0-2.5,0-5-.1-7.5,8.1-1.2,15-3.7,20.4-7.5a32.74,32.74,0,0,0,7.8-7.5c9.3-12.4,11-26.2,9.4-35-.8-4.4-1.8-7.4-2.9-9a10.13,10.13,0,0,0-8.1-4.1,7.79,7.79,0,0,0-3.7.9c-1.5.8-2.8,2.2-8.8,8.8-3.5,3.9-7.9,8.8-10.1,10.7a54,54,0,0,1-6.8,4.9c-1.5-3.1-3.1-6.3-4.7-9.3-1.8-3.5-7.1-9.7-32.3-24.3-16.4-9.5-34.5-18.6-44.9-23.7-1.7-8.9-5.6-17.7-11.9-26.7a34,34,0,0,0,4.6-.6,37.16,37.16,0,0,0,8.2-2.5c11.3-5.2,17.6-13.1,19.8-18.7,1.6-4.2,1.6-6.2,1.3-7.4a8.35,8.35,0,0,0-8-6.5h-.7c-1.3.1-2.7.6-9.3,3.1-3.9,1.5-8.8,3.3-11,3.9a108.65,108.65,0,0,1-15.2,2.5c-4.4.4-9.1.7-12.8.9a72.51,72.51,0,0,0-23.1-11.5c-1-.3-2.1-.6-3.2-.9a102.41,102.41,0,0,0-26.1-3.5,90,90,0,0,0-24.5,3.3.9.9,0,0,0,.1-.5A7.5,7.5,0,0,0,238.8.5,5,5,0,0,0,236,0a22.63,22.63,0,0,0-2.5.1c-4.6.5-11.2,3.3-16.2,9.8a20.07,20.07,0,0,0-2.8,5.2,25.8,25.8,0,0,0-1.3,10.6c-.7.6-1.3,1.1-1.9,1.7A24.87,24.87,0,0,0,203.4,43a26,26,0,0,0-4-.3,30.72,30.72,0,0,0-5.3.5c-3,.6-8.6,2.4-12,7.4a20.59,20.59,0,0,0-2.1,4.2c-1.2-1.3-2-2.1-2.1-2.2-1.7-1.7-3.9-1.9-5.8-1.9a16.23,16.23,0,0,0-2.1.1c-5,.2-13.4,1.1-19.6,1.9-13.4,1.7-14.8,2.2-16.3,4-.8,1-1.3,1.6-6.7,22-10.6,5.4-18.2,10.7-22.6,16a.1.1,0,0,1-.1.1l-.2.2c-1.2,1.6-5.2,8.2-10.1,17-2.2-.1-4.7-.2-7-.4a59.91,59.91,0,0,1-9.9-1.5c-1.4-.4-4.8-1.7-7.3-2.7-4.6-1.8-5.7-2.2-7-2.3h-.6a7.77,7.77,0,0,0-7.4,6.2c-.2.9-.3,2.6.9,6.1,1.5,4.6,6,11,14.3,15,.5.2,1,.5,1.5.7a33.56,33.56,0,0,0-5.4,22.3,18.7,18.7,0,0,0,3.6,8.6c-1.8,4.7-3.4,9.3-4.8,13.7h-.1c-8,0-15.1,5.8-18,14.7-2,5.9-1.8,11.2.4,15.5a16.28,16.28,0,0,0,6.1,6.4.31.31,0,0,0,.2.1.37.37,0,0,0,.3.1h.1c1,.6,2,1.1,2.9,1.6-.4,3.3-.6,6.3-.8,8.7a38.42,38.42,0,0,0-13,7.4c-7.5,6.3-10.8,11.7-10.8,17.3,0,1.9.8,4.5,4.9,6.3,3.4,1.5,10.3,2.8,17.5,3.5,0,.2.1.3.1.5a60.25,60.25,0,0,0-16.6,8.8C12.6,284,0,302.4,0,324.9c0,33.3,26.7,60.4,59.5,60.4,10,0,20.2-3.9,32-8.4l2.4-.9c23.4-8.4,39.7-32.6,39.7-58.9a60.28,60.28,0,0,0-2.6-17.5c1.4.2,2.8.3,4.2.5,20.7,2.5,36.2,4.3,62.7,10.5-8.7,8-13.1,17.2-13.1,27.6,0,21.3,17.1,38.7,38.1,38.7,6.4,0,12.9-2.5,20.3-5.3l1.5-.6c13.7-4.9,23.7-18.4,25.2-33.6l2.8.5a48.26,48.26,0,0,0-3.4,18.2c0,30.2,24.3,54.9,54.1,54.9,9.1,0,18.3-3.5,29-7.6l2.2-.8c21.2-7.6,36-29.6,36-53.5a55.25,55.25,0,0,0-2.7-17.2,186,186,0,0,0,11.2-15.8c.9-1.4,1.7-2.9,2.6-4.3,25.7-6.8,49.2-19.9,66.2-37.2a65.58,65.58,0,0,0,10.2-13.5C489.9,240.5,490.4,215.9,486.9,199.8Zm-445.57,46c1.07-1.95,3.15-4.52,7.18-7.94,7.3-6.2,15.67-8.54,29.87-8.36,14.77.2,27,7.14,29.54,9.5,5.75,5.39,8.18,16.66,8.71,24.66a43.53,43.53,0,0,1,.07,5.16c-.17-.45-.35-1-.55-1.52-2.75-7.47-12.79-19.35-22.91-21.71a16,16,0,0,0-3.65-.43,14.21,14.21,0,0,0-10,4.14c-2.61,2.51-10.47,3.59-21,2.88-9.54-.64-16.48-2.36-18.3-3.3A8,8,0,0,1,41.33,245.76ZM131.55,85.17a1.79,1.79,0,0,0,1.18,0c.21-.07,20.75-7.3,48.2-.15a1.85,1.85,0,0,0,1.4-.19c11.88-6.85,11.38-8.09,10.9-9.3h0c-.62-1.49-4.35-5.82-8.25-10.12l.92-.26c0,.05.09.1.15.15a13.85,13.85,0,0,0,9.29,3.17c.62,0,1.24,0,1.87-.1A17.26,17.26,0,0,0,209.54,61a14,14,0,0,0,1.24-2.26l1.22-.27.11,0a18.4,18.4,0,0,0,4.77,3.87c9.86,4.83,29.39,4.73,40.54-5.72,3.91,4.68,12.29,7.53,19.46,8,7.86.52,16.55-.42,21.53-3.37l.62.13a7.9,7.9,0,0,0,.37,4.93c1.21,2.85,4.08,4.74,7.85,5.2a49.41,49.41,0,0,0,6.58.41c1.95,0,3.85-.09,5.8-.18l.38,0c4.09-.25,8.21-.7,10.59-1,3.36,1.3,6.61,2.66,9.71,4.11,32.79,15.31,81.2,41.15,86.14,50.67,2.3,4.44,4.21,8.37,5.64,11.41-15.56-11.54-59.63-42.42-103.92-56.64C318.06,77,291.91,69.62,263.61,69.62c-15.61,0-31.88,2.25-46.46,8.67-9,4-19.79,12.65-24.08,16.28a14.49,14.49,0,0,0-4.49-3.31c-.56-.3-1.17-.61-1.8-.91l-.66-.31c-.39-.18-.78-.36-1.19-.53l-.9-.38-1-.39-1.13-.43-.54-.18c-1.82-.64-3.72-1.19-5.69-1.67l-.45-.11q-.84-.19-1.68-.36l-.9-.19-1.43-.25L170,85.33l-1-.14c-2-.28-4.21-.5-6.51-.64-.32,0-.63,0-.95-.06l-1.82-.07c-.44,0-.87,0-1.31,0h-3.31l-1.59,0-2,.08-1.33.07q-1.74.11-3.51.27c-2.67.24-5.53.64-8.43,1.14-1.07.19-2.15.4-3.22.61l-2.31.49c-1.21.27-2.4.55-3.59.85-1.88.47-3.72,1-5.5,1.52C126,88,128.71,86.58,131.55,85.17Zm3.19-4.5c1.89-7.19,4.33-16.29,5.18-18.88,4.78-1.11,29.37-4,33.22-3.63,2.47,2.44,13.28,14.14,16,17.8a85.58,85.58,0,0,1-8,5.25,101,101,0,0,0-24.82-3.13A86.28,86.28,0,0,0,134.74,80.67Zm202,221c25.74,0,46.6,21.18,46.6,47.3s-20.86,47.3-46.6,47.3-46.6-21.18-46.6-47.3S311,301.7,336.7,301.7Zm67.18-148.42a2.51,2.51,0,0,1-.51.39l-.45.31-.41.31,0,0a1.7,1.7,0,0,0-.38.26,4.3,4.3,0,0,0-1.41,4.21,5,5,0,0,0,2.59,3.37,28,28,0,0,0,8.5,2.28l.76.09c1.32.2,2.6.36,3.86.51a73.15,73.15,0,0,1,6.37,20.56l.11.61c.26,1.48.44,3.06.62,4.58l.06.51a93.88,93.88,0,0,1,.39,15.89c-1,18.67-8.67,44.4-19.6,65.55-.91,1.77-1.82,3.46-2.74,5.1-5.08-1.81-12.12-4.27-19.8-6.76q1.67-3.18,3-6.47a78.46,78.46,0,0,0,5.42-20l.58,1.2a1.86,1.86,0,0,0,3.54-.8,1.76,1.76,0,0,0-.18-.8l-1.26-2.64-1.25-2.62c-.07-.17-.15-.33-.22-.49l-.76-1.64a1.49,1.49,0,0,0-.18-.3c-6.87-14.26-12.28-24.07-22.9-31.27a37.91,37.91,0,0,0-6.19-3.26c-6-2.48-12.89-3.71-19-4.79l-.71-.12c-5.18-.92-9.73-1.78-12.91-3.09l-.12,0a5.81,5.81,0,0,1-.92-.42l-.29-.15c-4.2-2.27-6.87-5.94-6.62-9.12.22-3,3.36-5.7,8.82-7.57,10-3.29,22.93-2.33,34.69,2.54l.25.11a2.08,2.08,0,0,0,.36.2,51.6,51.6,0,0,1,15.92,10.31,1.86,1.86,0,0,0,2.6-2.66h0v0a56.71,56.71,0,0,0-17.68-11.37q-1.05-.43-2.13-.84a1.86,1.86,0,0,0-.08-3.69l-2.91-.3a1.53,1.53,0,0,0-.37,0,66.22,66.22,0,0,1-17.91-4A30.7,30.7,0,0,1,328.9,156.6a1.85,1.85,0,0,0-2.67-.35c-7.67,6.21-23.91,5.77-28.4,3.94a3,3,0,0,1-1-.67,10,10,0,0,1-2.31-7.65c.45-4.72,3.88-9.47,9.92-13.75,21.08-14.83,49.76-17,76.68-5.92.45.21.94.41,1.42.61l1.37.59a64.66,64.66,0,0,1,23.66,17.89c-1.32.64-2.44,1.2-3.31,1.68A2.1,2.1,0,0,0,403.88,153.28Zm15.88,101.05a177.36,177.36,0,0,1-12.65,25.52l-2-.72c.84-1.51,1.67-3.06,2.51-4.68,11.14-21.57,19-47.9,20-67a98.25,98.25,0,0,0-.38-16.15c.49-8.73.62-17.42.56-25.45h.82c1.46,0,2.86-.05,4.21-.11C434.1,197.92,429.64,228.59,419.76,254.33ZM77.9,303.39a13.78,13.78,0,0,0-3.6-.49,14.26,14.26,0,1,0,10.5,4.79l7-17.7a32.67,32.67,0,0,1,14.5,27.21c0,17.94-14.37,32.54-32,32.54s-32-14.6-32-32.54,14.37-32.54,32-32.54a31.46,31.46,0,0,1,10.35,1.76Zm15.19-24A17.44,17.44,0,0,0,86.87,278l10.84-26.62a37.38,37.38,0,0,1,8.94,7.67l-9.39,23.06A16.64,16.64,0,0,0,93.09,279.41ZM82.18,252a10.63,10.63,0,0,1,6.3-3l-4.66,12.36a54.09,54.09,0,0,0-8.4-.81l2.27-6A11.87,11.87,0,0,0,82.18,252ZM117,275.55h.23a1.8,1.8,0,0,0,.88-.22c1.14-.61,1.8-2,2.14-4.61,1.07-8.08-1.27-26.52-9.75-34.49-1.5-1.39-5.61-4-11.4-6.31a25.92,25.92,0,0,0,13-13.35l.34.22-.07.13c10.24,5.65,13,6.34,14,6.34a2.12,2.12,0,0,0,.42,0,22.08,22.08,0,0,0,15.51-14.88c3.32-10.75-2.37-16.76-2.65-17a176.44,176.44,0,0,1,20.79,5.58c-6,20.7-11.69,41.48-15.61,58.37-3.38,4.86-6.17,9.79-5.35,14.46a9.64,9.64,0,0,0,1.58,3.81c-.59,3.43-1,6.49-1.26,9.1-2.93,0-8.32.27-15.2.58l-5.31.23a58.09,58.09,0,0,0-5.63-6.59c-.32-2.42-.56-5.08-.72-7.83C114.9,274.81,116,275.42,117,275.55ZM268.19,73.4c.07.49.18,1,.31,1.64a47.89,47.89,0,0,0,1.95,6.37,41.29,41.29,0,0,0,3.06,6.37c2.06,3.43,4.69,6.32,7.83,7.36a8.19,8.19,0,0,0,1.46.36c5.68.77,10.69-1.33,14.64-4.42a28.93,28.93,0,0,0,6.77-7.68,17.61,17.61,0,0,0,2.22-5.12l.1,0c.1,1.58.22,3.36.44,5.21a34.37,34.37,0,0,0,.91,4.93,18.36,18.36,0,0,0,2.89,6.32,13,13,0,0,0,7.63,4.94c6.05,1.47,10-1.66,12.61-5.49a47.83,47.83,0,0,0,4-7.69l.28.1c0,2.73,0,5.41.21,7.84a25.42,25.42,0,0,0,.57,3.62c.84,3.38,2.54,5.83,5.89,6.56a2.1,2.1,0,0,1,.24.06c3.33.53,5.95.4,8.07-.46,3.05-1.23,5.07-4,6.66-8.55l.06,0c-.17,3.08-1.25,6-1.69,8.55-.38,2.25-.28,4.25,1.32,6A11.07,11.07,0,0,0,361,112.8c6.2,2.27,9.72-1.86,11.79-6.67.08-.2.16-.41.25-.61.19-.49.37-1,.54-1.46h0c-.08.51-.16,1-.23,1.49l-.06.44c-.73,5.32-.6,8.25,1,10.22a7.67,7.67,0,0,0,2.4,1.88,7.55,7.55,0,0,0,9.7-1.1,16.6,16.6,0,0,0,3-4,.57.57,0,0,1,.13.08c-.42,1.55-1,2.91-1.36,4.1-.17.51-.32,1-.43,1.44-.39,1.55-.36,2.82.75,4,3.29,3.39,8.08.78,14.82-1l.29.18c-2.61,2.56-2.69,7.34-.59,9.6a4,4,0,0,0,.48.44,5.77,5.77,0,0,0,.54.37c2.81,1.61,6.46-.62,9.53-3.84l.06,0c-1.72,4.24-2.22,6.68-2.06,8.14l-10.56,3a68.8,68.8,0,0,0-6.81-4.86,71.92,71.92,0,0,0-8.18-4.4l-.56-.26-1.44-.62-1.41-.6a98.14,98.14,0,0,0-15.47-5,88.89,88.89,0,0,0-26.42-2.13,76.44,76.44,0,0,0-34.76,11,161.58,161.58,0,0,0-23.06-11.41c-6.91-2.83-14.49-5.77-22.55-8.66A44.13,44.13,0,0,0,264.5,99.4a35.42,35.42,0,0,0,.37-6.66c0-.55-.06-1.09-.11-1.6-.09-1-.59-6.08-1.65-7.87h0c-1.14-2-4.32-3.6-6.49-2.56-.9.41-2.46,1.77-6.9,5.94l-2,1.86c-4.18,3.94-8.92,8.41-11.44,10.29a65.28,65.28,0,0,1-6.43,4c-10.27-2.92-20.91-5.53-31.69-7.6,5.06-4.09,13.45-10.42,20.47-13.49C234.14,74.87,251.65,72.94,268.19,73.4Zm19.28,90.65a10,10,0,0,1-6.28,7.13,11.31,11.31,0,0,1-8.46.41c-2.68-1.15-3.73-3.28-3.11-6.31s3.68-4.65,4.64-5.13a18.42,18.42,0,0,1,8.11-2.05,8.24,8.24,0,0,1,3.06.5,2.5,2.5,0,0,1,.68.42,2.4,2.4,0,0,0,.22.24A5.09,5.09,0,0,1,287.47,164.05ZM223.87,105l.63.24.4.19c-2.18,1.09-4.54,2.2-7.05,3.28-1.79.79-3.62,1.54-5.44,2.28a7.87,7.87,0,0,1,.58-2.59,7.41,7.41,0,0,1,4.69-3.88h0a8.43,8.43,0,0,1,3.6-.19Zm36-19.9.05.09a25.06,25.06,0,0,1,1.14,6.32c.76,7.49-1.64,19.12-10.63,29.26a29.45,29.45,0,0,1-6.76,5.44c-7.12,4.14-20.72,7.88-45.06,2.19l-.9-.2a27,27,0,0,1-7.41-2.56,1.43,1.43,0,0,1-.64-1,.81.81,0,0,1,.18-.65c.23-.13.47-.29.72-.45l.23-.12a4.16,4.16,0,0,1,.57-.28,2,2,0,0,0,.34-.12c2-.95,5.58-2.27,9.72-3.81,5.24-2,11.77-4.38,17.93-7.07a108.67,108.67,0,0,0,19.17-10.32c2.71-2,7.53-6.56,11.79-10.57,3.15-3,7.07-6.67,7.85-7.12A2.43,2.43,0,0,1,259.86,85.08Zm-12.24,47.27c-.2.65-.79,1.1-1.83,1.36a6.34,6.34,0,0,1-1.84.23,20.64,20.64,0,0,1-6.51-1.1,36.7,36.7,0,0,0,8.11-3.44c.53-.31,1-.66,1.56-1A6.13,6.13,0,0,1,247.62,132.35ZM221.1,138.9a69.22,69.22,0,0,0,9.3-.6c3.7,1.6,8.7,3.2,13.3,3.2h.5a15,15,0,0,0,3.7-.5,9.51,9.51,0,0,0,5.7-3.7,30.36,30.36,0,0,1,8.2-2.4,338.66,338.66,0,0,1-1.6,35.3A82.65,82.65,0,0,0,245.3,186a143,143,0,0,0-11.1-26.1,206.18,206.18,0,0,0-13.6-21Zm60.3-3.6v-.9l5.9.3A37.72,37.72,0,0,1,281.4,135.3Zm-4.24,9a.86.86,0,0,1-.07-.1,1.48,1.48,0,0,1-.19-.4l-.16-.36a.11.11,0,0,1,0,0c0-.06,0-.11,0-.16s.07-.19.1-.2l.31-.11.23,0c3.2.53,10.48-.15,17.32-1.62l.89-.2a19.77,19.77,0,0,0-4.54,8.48l-.32,0C283.81,148.65,278.73,146.68,277.16,144.28Zm.21-17.75c-.06-1.18-.13-2.37-.2-3.55l4.32,1.74q2.73,1.13,5.23,2.23C283.58,126.77,280.44,126.62,277.37,126.53Zm-3.34,14a4.07,4.07,0,0,0-1,2.12,3.9,3.9,0,0,0,.17,2l.1.24.13.28a5.75,5.75,0,0,0,.52,1q-.08,5.09-.34,10.1c-.36.16-.72.33-1.07.51a14.73,14.73,0,0,0-4.16,3.1c.89-14.17.86-28.46.53-40.17,1.45.55,2.9,1.12,4.37,1.7C273.76,127.88,274,134.26,274,140.56Zm-8.66-13.86a44.7,44.7,0,0,0-14,3.12,13.79,13.79,0,0,0-1.2-3.71,30.69,30.69,0,0,0,3-2.88,48.35,48.35,0,0,0,5.35-7.32q3.29,1.19,6.64,2.43C265.26,121,265.33,123.79,265.37,126.7ZM206,105.1a16.9,16.9,0,0,0-1.2,4.4c-2.2.8-4.3,1.6-6.2,2.3s-3.4,1.4-4.8,1.9a18.88,18.88,0,0,1,.6-1.8l.6-1.7a78,78,0,0,0,2.4-7.7c3,.6,6,1.2,9,1.9A2.51,2.51,0,0,1,206,105.1Zm-18.34,15.63c.09-.26.17-.51.25-.76l.15-.45,1,.57h0l-.27.14-.2.12c-.23.15-.45.3-.6.38l-.25.15-.15.12Zm-1.59,4.93a5.15,5.15,0,0,0,2.26,3.13,30.87,30.87,0,0,0,8.57,3l.88.19c2.81.66,5.48,1.18,8,1.61l.78.78,2.18,2.21c5.17,5.26,14.29,18.72,18.7,26.78,6.61,12.13,13.7,28,16.08,53.78,3.3,35.79-20.88,57.16-25.57,60.94-1-.26-2.08-.5-3.07-.73-11.14-2.53-26.67-3.91-40.83-4.5a43.56,43.56,0,0,0,13.83-18.44q.19-.45.39-1c.18-.44.38-.91.6-1.42a2,2,0,0,0,.11-.32l.06-.15c.14-.42.3-.84.47-1.27s.37-.95.54-1.46a57.49,57.49,0,0,0,1.72-19.05c-.08-1-.18-2.09-.33-3.19a17,17,0,0,1,7-2.57,18.94,18.94,0,0,1,2.27-.19c5,0,9.6,2.32,11.59,5.77a1.86,1.86,0,0,0,3.28-1.76,12.84,12.84,0,0,0-4.41-4.7,1.7,1.7,0,0,0-.35-.19,19,19,0,0,0-10.11-2.84,23.29,23.29,0,0,0-2.74.21,21,21,0,0,0-7.19,2.35c-1-4.38-2.91-8.61-6.31-10.93a10.42,10.42,0,0,0-6.11-1.83c-12.11,0-16.74,12.08-20.83,22.74l-.07.18c-.93,2.54-2.17,5.82-3.54,8.65a40.36,40.36,0,0,1-3.49,5.8c3.53-14.28,8-30.63,12.78-47l10.17.82a13.15,13.15,0,0,0,3,1.52,14.58,14.58,0,0,0,4.86.84,15.42,15.42,0,0,0,6-1.26L213,204.26h.15a1.83,1.83,0,0,0,.73-.15c.19-.08,4.57-2,4.83-6.76a8,8,0,0,0-3.72-7.36,2,2,0,0,0-.79-.25L205,189a1.86,1.86,0,0,0-2.64-2c-3.88,1.88-9.69,6.68-12.82,9.38a12,12,0,0,1-11.94,2.71c-2.58-.91-4.47-2.73-4.8-4.65a18,18,0,0,1,5.58-16.34c5.23-4.45,18-5.84,22.77-4.16a1.87,1.87,0,1,0,1.24-3.52c-5.78-2-19.93-.68-26.43,4.84a21.55,21.55,0,0,0-6.49,10.9l-2.1-.17c2.61-8.77,5.23-17.45,7.77-25.7a22.23,22.23,0,0,0,3.45-3.73,1.85,1.85,0,0,0-1.39-2.93c3.23-10.4,6.24-19.93,8.79-27.85C186,125.76,186.05,125.71,186.07,125.66ZM245.14,277a17.74,17.74,0,0,1-2.18,8.6c-4.19-1.39-8.3-2.71-12.22-3.9a47.37,47.37,0,0,1-4.32-6.21,76.28,76.28,0,0,0,16.09-25.16A230.89,230.89,0,0,1,245.14,277Zm3.05,5.48a80.75,80.75,0,0,0,5.29,6.71c-2.31-.81-4.62-1.6-6.91-2.38A19.21,19.21,0,0,0,248.19,282.45Zm-24.53-4.3c.38.61.76,1.2,1.15,1.78l-2.39-.66C222.83,278.91,223.25,278.53,223.66,278.15ZM168.2,273a1.76,1.76,0,0,0-.42.24,12.66,12.66,0,0,1-1.1.77,4.22,4.22,0,0,0-.47.31,2.79,2.79,0,0,0-.86.53l-.13.06c-.19.1-.37.19-.56.31s-.25.15-.4.25l-.18.1a1.09,1.09,0,0,1-.27.11l-.29.13a1.8,1.8,0,0,0-.46.14H163l-.89.32c-.26.09-.52.19-.81.28l-.23.1-.56.15a5.19,5.19,0,0,1-.73.18l-.3.08-.25,0a5.58,5.58,0,0,1-.57.08c-.25,0-.49.05-.74.09H155.6a15.49,15.49,0,0,1-1.86-.17,2.4,2.4,0,0,0-.68-.13,7.15,7.15,0,0,1-1.27-.31,3.29,3.29,0,0,0-.43-.09h0l-.17-.08c-.47-.19-.91-.36-1.44-.63l-.2-.1a2,2,0,0,0-.39-.14l-.11-.06a13.77,13.77,0,0,1-1.95-1.15c-2.41-1.72-3.74-3.45-4.05-5.3-.73-4.19,3.22-9.65,7.05-14.93l.54-.74a67.07,67.07,0,0,0,6.66-10.3c1.42-3,2.71-6.35,3.66-8.94L161,234c4-10.46,7.8-20.35,17.37-20.35h.13a6.5,6.5,0,0,1,3.82,1.16l0,0c7.42,5,6.54,25.33,4.18,32.87-.14.42-.3.84-.47,1.27s-.33.86-.48,1.3l0,.08a1.57,1.57,0,0,0-.16.46c-.2.45-.37.87-.53,1.27s-.24.6-.37.89c-3.62,8.67-8,13.3-13.93,18l-.17.14-.1.1s-.63.63-1.6,1.43l-.44.33Zm-20.79,5.92a2.61,2.61,0,0,0,.71.3,17.25,17.25,0,0,0,1.63.71,3.57,3.57,0,0,0,1.07.33,13.36,13.36,0,0,0,1.77.41h.1c-3.5.2-6.57.46-9.14.72.16-1.39.37-2.92.61-4.53.25.19.49.38.76.57A17.42,17.42,0,0,0,147.41,278.89Zm12.32,0h0L159.6,277h.11l0,1.86Zm256.47-136c-1.6.7-3,1.4-4.3,2a2.65,2.65,0,0,0-.5-.6ZM79.59,220.66l0,.06a12.42,12.42,0,0,1-4.88-5c-1.87-3.61-1.87-8.31,0-14,3.08-9.4,9.8-13.7,15.71-13.7a11.6,11.6,0,0,1,3.35.49,9.75,9.75,0,0,1,1.36.58l0,.06,1.42.83c4.55,3.49,6.3,11.28,3.84,19.1h0c-2.88,9.26-10.54,15.17-17.07,13.17-.58-.18-1.2-.41-1.84-.68ZM68.4,213.12a17.31,17.31,0,0,1-2.18-.88c.37-.15.73-.3,1.1-.49a14.88,14.88,0,0,0,2.26-1.48,20.23,20.23,0,0,0,.24,2.37A10.51,10.51,0,0,1,68.4,213.12Zm56.6,4.42c4.27-2.2,7.85-6.75,9.58-12.18a21.36,21.36,0,0,0,.24-12.59l2.19,1.29c.72.87,4,5.38,1.62,13.15a18.22,18.22,0,0,1-12.5,12.32,19.91,19.91,0,0,1-3-1.21A14.13,14.13,0,0,0,125,217.54Zm.83-30a7.89,7.89,0,0,1,1,.39l0,0,1.27.75c3.65,2.82,5,9.14,3,15.49-1.42,4.5-4.31,8.23-7.72,10a7.84,7.84,0,0,1-6,.7c-2.32-.75-5.42-2.3-7-5.46-1.45-2.88-1.42-6.65.11-11.19,1.95-6,6.93-11.17,12.57-11.17A9.52,9.52,0,0,1,125.83,187.57ZM108.7,192.9l-9.59-5.63c4.39,0,9,.18,13.62.49A21.87,21.87,0,0,0,108.7,192.9Zm-28.81-5-.11-.06.21,0Zm-3,2.6c-.17.17-.33.38-.49.57-.07-.34-.14-.67-.23-1Zm26.94,19.74a25.06,25.06,0,0,0,0-15.9l3.29,1.93c-.1.27-.2.54-.29.82-1.85,5.51-1.81,10.23.11,14a12.88,12.88,0,0,0,2.06,3c-4.26,10.85-13.41,13.32-14.76,13.62a30.17,30.17,0,0,1-4.55-1.89C95.78,224,101.4,218.21,103.88,210.26ZM296.23,314.8c-18.43-8.31-39-16.71-60.44-23.87-25.45-8.52-50.41-10.68-69.17-10.68-1.66,0-3.27,0-4.83.05l.17-.05a1.85,1.85,0,0,0,.83-.29l.6-.21.68-.24.23-.07a2,2,0,0,0,.54-.17,2.52,2.52,0,0,1,.34-.15,5.44,5.44,0,0,0,.86-.41l.39-.24.2-.12c.09-.06.17-.09.26-.14a4.65,4.65,0,0,0,.64-.36l.17-.12.13-.06a4.48,4.48,0,0,0,.59-.38v0l.13-.07c.43-.26.8-.52,1.13-.76,15,.47,32.33,1.83,44.4,4.58,23.85,5.37,73.32,24.4,87.28,30.13C299.57,312.35,297.85,313.56,296.23,314.8Zm-8.67-13.09a84.27,84.27,0,0,1,3.34-8.15l.08-.18a73.94,73.94,0,0,0,4.23-11c.67-2.7,1.16-5.64,1.63-8.48l.1-.58c1.67-10.7,3.24-20.8,12.39-22.58a6.21,6.21,0,0,1,3.77.32c3,1.25,5.71,5.16,7.64,11.08-6,2.13-9.09,5.84-11.6,9.67-2.95,4.5-12.43,22.08-17.47,31.52Zm32.76-49.06a15.32,15.32,0,0,0-3.78-3.94,10.38,10.38,0,0,0-2-1.13h0a10,10,0,0,0-5.95-.5c-7.25,1.41-10.73,6.77-12.74,13.25a58.8,58.8,0,0,0-1.54,6.38c-.37,2-.69,4-1,6l-.09.57c-.4,2.42-.83,4.91-1.35,7.19-.07.33-.14.67-.22,1a71.43,71.43,0,0,1-4,10.43l-.08.16a83.55,83.55,0,0,0-3.41,8.35c-6.75-2.58-14.59-5.51-22.72-8.43a76.08,76.08,0,0,1-12.51-15.2c-.08-3.09-.51-10-1.35-17.36a147.62,147.62,0,0,0-2.61-16.24c.23-.81.44-1.63.64-2.46q.83-3.41,1.32-7a72.65,72.65,0,0,0,.39-16.88c-.13-1.46-.29-3-.46-4.47q-.34-3.08-.85-6.33c-.24-1.56-.5-3.14-.81-4.76a76.36,76.36,0,0,1,23.64-27.78,9.88,9.88,0,0,0,2.5,1.52,11.08,11.08,0,0,0,2,.61,13.29,13.29,0,0,0,2.93.32,16.68,16.68,0,0,0,3.4-.37,17.68,17.68,0,0,0,3.06-.95c.24-.1.47-.22.71-.34a14.63,14.63,0,0,0,5.36-4.22,12.47,12.47,0,0,0,2.45-5.31,11.7,11.7,0,0,0,.2-2.47c.79-.25,1.6-.48,2.4-.7.15.19.3.38.45.54a6.76,6.76,0,0,0,2.22,1.5c3.27,1.34,11.06,2.08,18.7.85a31.18,31.18,0,0,0,11.93-4.2,34.5,34.5,0,0,0,14,10.16l1.56.6h0a46.13,46.13,0,0,0-12.76,1.71l-1.3.4a22.8,22.8,0,0,0-7.74,4.15,11.34,11.34,0,0,0-2.66,3.31,8.79,8.79,0,0,0-1,3.36,11.1,11.1,0,0,0,2.24,7.2,18.52,18.52,0,0,0,6.39,5.51l.26.13a8.88,8.88,0,0,0,1.42.64,48.16,48.16,0,0,0,8.68,2.37c1.57.32,3.22.62,4.94.92l.71.13c2.8.49,5.77,1,8.72,1.69a57.84,57.84,0,0,1,9.49,2.87,34.36,34.36,0,0,1,5.56,2.92c9.79,6.64,15,16,21.56,29.7a75.18,75.18,0,0,1-5.73,25.16q-1.41,3.44-3.17,6.74c-13.53-4.3-28.34-8.43-37.64-9.29-.93-.09-1.82-.16-2.69-.21a51.08,51.08,0,0,0-13.59.69A33,33,0,0,0,320.32,252.65Zm109.08-113c0,.43-.08.83-.14,1.21l-.61.33A7.6,7.6,0,0,0,429.4,139.6ZM110.57,99.66c3.48-3.79,17.46-8.4,30.77-10.41,1.9-.29,3.79-.52,5.63-.7,20.28-1.86,32.86,2.23,39.85,6,4.82,2.6,4.82,2.6,1.17,13.32l-.56,1.65c-5,15-16,49.48-26.06,83.78a174.55,174.55,0,0,0-30.9-7.42l-.53-.31a10.72,10.72,0,0,0-3-1.53,13.06,13.06,0,0,0-9.12.38c-6.2-.52-12.94-.83-20.28-.83s-15,.3-23.49,1l-2.52-1.46h0C83.84,142.46,109.08,101.44,110.57,99.66ZM64.86,215.71a10.45,10.45,0,0,0,3.61,1.16,2,2,0,0,0,.31,0,10.68,10.68,0,0,0,2.07-.57,12.6,12.6,0,0,0,.52,1.19A16.76,16.76,0,0,0,79.83,225l1.58.83c-1-.07-2-.11-3-.12a74.71,74.71,0,0,0-14.57,1C64.09,223.5,64.41,219.75,64.86,215.71ZM62.54,256a61.62,61.62,0,0,0,10.79-.57l-1.91,5a55.61,55.61,0,0,0-8.66,1.13C62.67,259.83,62.59,258,62.54,256ZM79.82,135.38a46.93,46.93,0,0,1,12.74-11.74q-1.4,2.69-2.82,5.54c-4.47,8.85-9.2,19-13.5,29.63a10.21,10.21,0,0,1-1.79-4.43C73.68,147.93,75.49,141.53,79.82,135.38ZM69.51,186.2c2.53,1.87,3.87,5.65,3.52,9.89-.2.38-.38.8-.57,1.2a17,17,0,0,1-.56,2.51,13.68,13.68,0,0,1-1.5,3.36c-.09.34-.14.67-.21,1a12.81,12.81,0,0,1-4.58,4.28,6.8,6.8,0,0,1-5.24.59,10.06,10.06,0,0,1-6.09-4.67c-1.26-2.48-1.23-5.77.09-9.78s3.71-7.09,6.77-8.64a9.32,9.32,0,0,1,4.18-1,7.78,7.78,0,0,1,2.41.37,6.19,6.19,0,0,1,1,.41l0,0ZM74.3,369c-27.61,0-50-22.74-50-50.8s22.39-50.8,50-50.8a49.48,49.48,0,0,1,12.25,1.54L82.38,279.2a1.85,1.85,0,0,0,.22,1.8,1.87,1.87,0,0,0,1.65.76,18.54,18.54,0,0,1,2.26,0L86,283a35.12,35.12,0,0,0-11.73-2c-19.72,0-35.76,16.26-35.76,36.26s16,36.26,35.76,36.26,35.76-16.27,35.76-36.26a36.4,36.4,0,0,0-16.82-30.74l.84-2.11a14.09,14.09,0,0,1,2.34,2.28,1.86,1.86,0,0,0,1.48.73h.24a1.86,1.86,0,0,0,1.48-1.15l3.79-9.29A51,51,0,0,1,124.3,318.2C124.3,346.26,101.91,369,74.3,369Zm262.4-71.26A49.5,49.5,0,0,0,306.46,308c-.43.25-.84.51-1.25.76l-.79-.33c-1.37-.57-4.66-1.91-9.26-3.71,5.07-9.48,14.3-26.58,17.1-30.85,3.15-4.8,7.46-11.38,28-9.47,17.71,1.66,57.73,16.11,66.36,19.28A139.1,139.1,0,0,1,393,312a183.31,183.31,0,0,1-10.71,15.09A50.47,50.47,0,0,0,336.7,297.74Zm132-183.28a26.83,26.83,0,0,1,1.6,6c1.33,7.11-.07,18.45-8,28.94a25.32,25.32,0,0,1-6.07,5.79c-6.53,4.54-19.31,9.21-43.21,5.68l-.8-.1a24.48,24.48,0,0,1-7.3-1.92,1.26,1.26,0,0,1-.61-.83.57.57,0,0,1,.12-.51,4.2,4.2,0,0,0,.36-.27l.23-.17.09-.06.31-.22a7.52,7.52,0,0,0,.88-.65c1.78-1,4.77-2.37,8.22-4,5.08-2.36,11.4-5.3,17.35-8.51a104.56,104.56,0,0,0,17.64-11.43c2.47-2.15,6.78-7,10.58-11.2,2.68-3,6-6.69,6.86-7.35A2.44,2.44,0,0,1,468.67,114.46ZM334.46,29A99.91,99.91,0,0,0,351,26.29c2.48-.68,7.17-2.44,11.31-4,3-1.13,6.76-2.53,7.63-2.73a1.23,1.23,0,0,1,.38.26,16.17,16.17,0,0,1-1,3.13c-1.57,4.25-6.52,10.28-15.68,14.44a28.4,28.4,0,0,1-6.41,2c-6.27,1.16-17,1.05-32.43-6l-.6-.3-.1,0a18.34,18.34,0,0,1-4-2.24l.1,0h0a3.94,3.94,0,0,0,.54-.14h0a.64.64,0,0,1,.41,0,1.88,1.88,0,0,0,.53,0c1.77-.22,4.8-.39,8.31-.58C324.24,29.73,329.45,29.44,334.46,29ZM292.27,17.08l3,.9a66.65,66.65,0,0,1,18.39,8.64c-.81.07-1.53.13-2.15.2a4.34,4.34,0,0,0-1.9.21l-.15,0a3.41,3.41,0,0,0-.61.18,3.73,3.73,0,0,0-2.52,2.36,3.26,3.26,0,0,0,.92,3.57,20,20,0,0,0,5.37,3.21l.6.3A80,80,0,0,0,330,42.41c5.84,6.66,15,17.82,18,32.3-2.31-1.12-4.44-2.14-6.3-3-2.45-1.14-5-2.23-7.65-3.29v0A1.87,1.87,0,0,0,332,66.75c-1.07.14-6.67.85-12.15,1.19l-.36,0a61.62,61.62,0,0,1-11.73-.21c-2.43-.29-4.22-1.37-4.89-3a5.22,5.22,0,0,1,1.05-5.16c2.83-3.7,12.24-6,15.63-6.59a1.87,1.87,0,0,0-.62-3.68c-1.3.22-12.08,2.19-17,6.92a1.85,1.85,0,0,0-3.35-.16c-1.56,2.91-10,5.47-21.44,4.72-6.89-.46-15.64-3.67-17.74-8.05a1.87,1.87,0,0,0-3.07-.43c-9.46,10.67-28.7,11-37.76,6.58-2.55-1.31-6.81-5.87-7.41-9.72a17.79,17.79,0,0,1,5.42-16.15C235.65,15.44,264,9.48,292.27,17.08ZM236.12,7.85c-.53.88-1.42,2.28-2.13,3.4-1.41,2.2-2.86,4.48-3.58,5.86-.29.63-.62,1.44-.95,2.33A74,74,0,0,0,221,24.69a17.5,17.5,0,0,1,.87-6.82,10.12,10.12,0,0,1,1.64-3l.1-.12c3.5-4.61,8-6.53,10.87-6.78A10.8,10.8,0,0,1,236.12,7.85Zm-29,44.68a2.15,2.15,0,0,1,.53.76.42.42,0,0,1,0,.1c.57,1.43.11,3.52-1.22,5.48a13.49,13.49,0,0,1-9.64,5.78c-3.32.34-6.42-.46-8.24-2.12-2.5-2.3-1.33-5.35.08-7.5,2-3,5.94-4,7.12-4.2a18.81,18.81,0,0,1,3.82-.38C203,50.45,205.85,51.34,207.1,52.53ZM82.23,127.05a20.6,20.6,0,0,1-4.09-.28A15.65,15.65,0,0,1,74,125.42c-6-2.9-9.27-7.29-10.34-10.41a14.66,14.66,0,0,1-.52-2c.95.33,2.83,1.07,4.41,1.68,2.89,1.13,6.17,2.42,7.93,2.91A70,70,0,0,0,87,119.36c1.69.13,3.4.23,5,.31A59.42,59.42,0,0,0,82.23,127.05ZM402,303.81a130.44,130.44,0,0,0,8.31-19.49c16.81-7.72,31-19.05,39.11-32.46,8.24-13.78,8.66-28,1.18-40.14-8.89-14.38-7.52-27.73-1.58-33.49,4.09-4,10.33-4.21,17.12-.59,6,3.21,10.87,11.87,13.46,23.76,3.22,14.7,2.81,37.1-8,55.88a55.43,55.43,0,0,1-9,11.91C446.55,285.48,425,297.43,402,303.81Zm42-88.11c5.9,9.5,5.5,20.9-1.3,32-4.8,8.1-12.3,15.6-21.6,21.8,2.1-4.4,4-8.5,5.5-12.5a207.41,207.41,0,0,0,12.2-52.3A52.57,52.57,0,0,0,444,215.7Z"/><path class="cls-3" d="M253.19,123.23a30.69,30.69,0,0,1-3,2.88,13.79,13.79,0,0,1,1.2,3.71,44.7,44.7,0,0,1,14-3.12c0-2.91-.11-5.7-.19-8.36q-3.36-1.25-6.64-2.43A48.35,48.35,0,0,1,253.19,123.23Z"/><path class="cls-3" d="M277.17,123c.07,1.18.14,2.37.2,3.55,3.07.09,6.21.24,9.35.42q-2.5-1.11-5.23-2.23Z"/><path class="cls-3" d="M217.72,104.49h0a7.41,7.41,0,0,0-4.69,3.88,7.87,7.87,0,0,0-.58,2.59c1.82-.74,3.65-1.49,5.44-2.28,2.51-1.08,4.87-2.19,7.05-3.28l-.4-.19-.63-.24-2.55-.68A8.43,8.43,0,0,0,217.72,104.49Z"/><path class="cls-3" d="M237.44,132.84a20.64,20.64,0,0,0,6.51,1.1,6.34,6.34,0,0,0,1.84-.23c1-.26,1.63-.71,1.83-1.36a6.13,6.13,0,0,0-.51-3.95c-.51.34-1,.69-1.56,1A36.7,36.7,0,0,1,237.44,132.84Z"/><path class="cls-4" d="M223.66,278.15c-.41.38-.83.76-1.24,1.12l2.39.66C224.42,279.35,224,278.76,223.66,278.15Z"/><path class="cls-4" d="M268.41,159.93a14.73,14.73,0,0,1,4.16-3.1c.35-.18.71-.35,1.07-.51q.27-5,.34-10.1a5.75,5.75,0,0,1-.52-1l-.13-.28-.1-.24a3.9,3.9,0,0,1-.17-2,4.07,4.07,0,0,1,1-2.12c0-6.3-.27-12.68-.72-19.1-1.47-.58-2.92-1.15-4.37-1.7C269.27,131.47,269.3,145.76,268.41,159.93Z"/><path class="cls-5" d="M248.19,282.45a19.21,19.21,0,0,1-1.62,4.33c2.29.78,4.6,1.57,6.91,2.38A80.75,80.75,0,0,1,248.19,282.45Z"/><path class="cls-6" d="M382.61,128.78l1.41.6,1.44.62.56.26c7.08.13,13.47.72,17,1.1-2.1-2.26-2-7,.59-9.6l-.29-.18c-6.74,1.8-11.53,4.41-14.82,1-1.11-1.16-1.14-2.43-.75-4l-20.61,5.21A98.14,98.14,0,0,1,382.61,128.78Z"/><path class="cls-6" d="M355.3,104.27c.44-2.57,1.52-5.47,1.69-8.55l-.06,0c-1.59,4.57-3.61,7.32-6.66,8.55C352,104.23,353.66,104.24,355.3,104.27Z"/><path class="cls-6" d="M401,139.52l10.56-3c-.16-1.46.34-3.9,2.06-8.14l-.06,0c-3.07,3.22-6.72,5.45-9.53,3.84l-9.84,2.49A68.8,68.8,0,0,1,401,139.52Z"/><path class="cls-6" d="M389.54,113.08a.57.57,0,0,0-.13-.08,16.6,16.6,0,0,1-3,4l1.78.18C388.59,116,389.12,114.63,389.54,113.08Z"/><path class="cls-6" d="M373.59,104.07h0c-.17.49-.35,1-.54,1.46l.32,0C373.43,105.08,373.51,104.58,373.59,104.07Z"/><path class="cls-6" d="M306.53,78.3l-.1,0a17.61,17.61,0,0,1-2.22,5.12c.94,0,1.86.06,2.76.11C306.75,81.66,306.63,79.88,306.53,78.3Z"/><path class="cls-6" d="M218.65,81.7c-7,3.07-15.41,9.4-20.47,13.49,10.78,2.07,21.42,4.68,31.69,7.6a65.28,65.28,0,0,0,6.43-4c2.52-1.88,7.26-6.35,11.44-10.29l2-1.86L221.4,93.8s12.8-14,28.5-17.3A90.77,90.77,0,0,1,268.5,75c-.13-.6-.24-1.15-.31-1.64C251.65,72.94,234.14,74.87,218.65,81.7Z"/><path class="cls-6" d="M263.11,83.27c1.06,1.79,1.56,6.86,1.65,7.87.05.51.09,1,.11,1.6a58,58,0,0,1,8.64-5,41.29,41.29,0,0,1-3.06-6.37l-7.34,1.86Z"/><path class="cls-6" d="M335.29,86.62l-.28-.1a47.83,47.83,0,0,1-4,7.69c1.57.07,3.07.16,4.49.25C335.27,92,335.27,89.35,335.29,86.62Z"/><path class="cls-6" d="M264.5,99.4a44.13,44.13,0,0,1-4.15,13.22c8.06,2.89,15.64,5.83,22.55,8.66A161.58,161.58,0,0,1,306,132.69a76.44,76.44,0,0,1,34.76-11,43.62,43.62,0,0,1,11.08-4.1c6.78-1.43,15.16-1.62,22.5-1.38-1.6-2-1.73-4.9-1-10.22l-.51.13c-2.07,4.81-5.59,8.94-11.79,6.67a11.07,11.07,0,0,1-4.38-2.58L306,123s12.8-13.9,28.5-17.3a64.09,64.09,0,0,1,7.46-1.06c-3.35-.73-5-3.18-5.89-6.56L277.8,112.8s12.8-13.9,28.5-17.3c1.43-.3,2.92-.54,4.47-.74a18.36,18.36,0,0,1-2.89-6.32l-10.44,2.64c-3.95,3.09-9,5.19-14.64,4.42a8.19,8.19,0,0,1-1.46-.36Z"/><path class="cls-4" d="M429.4,139.6a7.6,7.6,0,0,1-.75,1.54l.61-.33C429.32,140.43,429.36,140,429.4,139.6Z"/><path class="cls-4" d="M427.84,165.8c.06,8-.07,16.72-.56,25.45a98.25,98.25,0,0,1,.38,16.15c-1,19.15-8.86,45.48-20,67-.84,1.62-1.67,3.17-2.51,4.68l2,.72a177.36,177.36,0,0,0,12.65-25.52c9.88-25.74,14.34-56.41,13.11-88.63-1.35.06-2.75.11-4.21.11Z"/><path class="cls-7" d="M373.36,105.56l-.32,0c-.09.2-.17.41-.25.61l.51-.13Z"/><path class="cls-7" d="M394.2,134.66l9.84-2.49a5.77,5.77,0,0,1-.54-.37,4,4,0,0,1-.48-.44c-3.53-.38-9.92-1-17-1.1A71.92,71.92,0,0,1,394.2,134.66Z"/><path class="cls-7" d="M351.8,117.6a43.62,43.62,0,0,0-11.08,4.1,88.89,88.89,0,0,1,26.42,2.13l20.61-5.21c.11-.45.26-.93.43-1.44L386.4,117a7.55,7.55,0,0,1-9.7,1.1,7.67,7.67,0,0,1-2.4-1.88C367,116,358.58,116.17,351.8,117.6Z"/><path class="cls-7" d="M307,83.51c-.9-.05-1.82-.08-2.76-.11a28.93,28.93,0,0,1-6.77,7.68l10.44-2.64A34.37,34.37,0,0,1,307,83.51Z"/><path class="cls-7" d="M249.9,76.5c-15.7,3.3-28.5,17.3-28.5,17.3l28.32-7.15c4.44-4.17,6-5.53,6.9-5.94,2.17-1,5.35.51,6.49,2.56l7.34-1.86A47.89,47.89,0,0,1,268.5,75,90.77,90.77,0,0,0,249.9,76.5Z"/><path class="cls-7" d="M277.8,112.8l58.27-14.72a25.42,25.42,0,0,1-.57-3.62c-1.42-.09-2.92-.18-4.49-.25-2.66,3.83-6.56,7-12.61,5.49a13,13,0,0,1-7.63-4.94c-1.55.2-3,.44-4.47.74C290.6,98.9,277.8,112.8,277.8,112.8Z"/><path class="cls-7" d="M334.5,105.7C318.8,109.1,306,123,306,123l50.62-12.78c-1.6-1.7-1.7-3.7-1.32-6-1.64,0-3.33,0-5,0-2.12.86-4.74,1-8.07.46a2.1,2.1,0,0,0-.24-.06A64.09,64.09,0,0,0,334.5,105.7Z"/><path class="cls-7" d="M264.87,92.74a35.42,35.42,0,0,1-.37,6.66l16.84-4.26c-3.14-1-5.77-3.93-7.83-7.36A58,58,0,0,0,264.87,92.74Z"/><path class="cls-8" d="M123.58,89.46c1.78-.54,3.62-1,5.5-1.52,1.19-.3,2.38-.58,3.59-.85L135,86.6c1.07-.21,2.15-.42,3.22-.61,2.9-.5,5.76-.9,8.43-1.14q1.77-.16,3.51-.27l1.33-.07,2-.08,1.59,0h3.31c.44,0,.87,0,1.31,0l1.82.07c.32,0,.63,0,.95.06,2.3.14,4.47.36,6.51.64l1,.14,1.27.22,1.43.25.9.19q.84.17,1.68.36l.45.11c2,.48,3.87,1,5.69,1.67l.54.18,1.13.43,1,.39.9.38c.41.17.8.35,1.19.53l.66.31c.63.3,1.24.61,1.8.91a14.49,14.49,0,0,1,4.49,3.31c4.29-3.63,15-12.32,24.08-16.28,14.58-6.42,30.85-8.67,46.46-8.67,28.3,0,54.45,7.37,64.56,10.61,44.29,14.22,88.36,45.1,103.92,56.64-1.43-3-3.34-7-5.64-11.41-4.94-9.52-53.35-35.36-86.14-50.67-3.1-1.45-6.35-2.81-9.71-4.11-2.38.28-6.5.73-10.59,1l-.38,0c-1.95.09-3.85.18-5.8.18a49.41,49.41,0,0,1-6.58-.41c-3.77-.46-6.64-2.35-7.85-5.2a7.9,7.9,0,0,1-.37-4.93l-.62-.13c-5,3-13.67,3.89-21.53,3.37-7.17-.48-15.55-3.33-19.46-8C246.27,67,226.74,67.1,216.88,62.27a18.4,18.4,0,0,1-4.77-3.87l-.11,0-1.22.27A14,14,0,0,1,209.54,61a17.26,17.26,0,0,1-12.33,7.4c-.63.06-1.25.1-1.87.1a13.85,13.85,0,0,1-9.29-3.17c-.06,0-.1-.1-.15-.15l-.92.26c3.9,4.3,7.63,8.63,8.25,10.12h0c.48,1.21,1,2.45-10.9,9.3a1.85,1.85,0,0,1-1.4.19c-27.45-7.15-48,.08-48.2.15a1.79,1.79,0,0,1-1.18,0C128.71,86.58,126,88,123.58,89.46Z"/><path class="cls-2" d="M274.79,390.65a1.48,1.48,0,0,0-1.64-1.34q-28.06,2.9-56.16,7.05c-1.18-.67-2.36-1.34-3.52-2.05q10.82-1.65,21.63-3.12a1.5,1.5,0,1,0-.4-3q-5.55.75-11.09,1.56a1.52,1.52,0,0,0,.89-1.43,1.47,1.47,0,0,0-1.56-1.44q-9.58.36-19.16,1c-2.81-2-5.55-4.09-8.23-6.3a1.5,1.5,0,1,0-1.9,2.32c1.81,1.49,3.66,2.92,5.52,4.33-3.31.26-6.63.54-9.94.85l-11.8-5.4a1.5,1.5,0,0,0-2,.74,1.48,1.48,0,0,0,.74,2l7.13,3.27c-4.48.47-9,1-13.44,1.56l-1.72-1a1.5,1.5,0,0,0-2.05.55,1.55,1.55,0,0,0-.18,1l-5.13.7-8.42-5a1.5,1.5,0,0,0-1.54,2.58l5.27,3.13c-1.47.22-2.94.43-4.4.67-3.52-1.73-7-3.66-9.6-6.51a1.5,1.5,0,0,0-2.2,2,28.66,28.66,0,0,0,6.9,5.28l-2.14.36q-4.84-3.36-9.69-6.79a1.51,1.51,0,1,0-1.74,2.46q3.61,2.55,7.24,5.06c-2.3.41-4.59.82-6.88,1.26q-1.68-1.35-3.33-2.71a1.5,1.5,0,1,0-1.91,2.32l1.41,1.14q-3.79.75-7.58,1.55a11,11,0,0,1-2.81-5.06,1.5,1.5,0,1,0-2.94.62,12.79,12.79,0,0,0,2.44,5.15q-19.44,4.21-38.58,9.7a1.5,1.5,0,0,0,.41,2.94,1.4,1.4,0,0,0,.41-.06q19.88-5.72,40.09-10a47.14,47.14,0,0,0,3.69,3.06l2.49,1.92Q100.47,413.7,73.9,421a1.5,1.5,0,0,0,.4,2.95,1.9,1.9,0,0,0,.4,0q27.66-7.58,55.77-13.86l2.12,1.62Q112,416,91.64,421a1.5,1.5,0,0,0,.36,3,1.47,1.47,0,0,0,.36,0q21.57-5.34,43.34-9.95l2.36,1.8q-13.47,3-26.78,6.85a1.5,1.5,0,0,0,.42,2.94,1.52,1.52,0,0,0,.42-.06q14.41-4.16,29-7.34l3.84,2.94q-15.27,3.47-30.46,7.31a1.5,1.5,0,0,0,.37,2.95,1.22,1.22,0,0,0,.37,0q16.35-4.12,32.81-7.83l2,1.57c-1.74.31-3.48.61-5.21.94a1.5,1.5,0,0,0,.28,3l.28,0c2.61-.48,5.24-.94,7.86-1.4l31.25,24a1.47,1.47,0,0,0,.91.31,1.5,1.5,0,0,0,.91-2.69l-29-22.33q5.85-1,11.74-1.87,10.27,5.94,20.94,11a1.51,1.51,0,0,0,.65.15,1.48,1.48,0,0,0,1.35-.85,1.5,1.5,0,0,0-.7-2q-8.86-4.23-17.43-9.05c2.5-.36,5-.7,7.51-1q15.13,9.75,30.09,18.81a1.5,1.5,0,0,0,1.56-2.56q-13.43-8.13-27-16.86,4.53-.57,9.06-1.07,11.28,7.57,22,16.18a1.52,1.52,0,0,0,.94.33,1.5,1.5,0,0,0,.94-2.67q-9.36-7.55-19.22-14.33l2.9-.31a63,63,0,0,1,12,8.58,1.5,1.5,0,0,0,2.12,0,1.5,1.5,0,0,0,0-2.12,54.21,54.21,0,0,0-9.15-6.93l5.86-.52L231.25,430a1.46,1.46,0,0,0,.75.2,1.5,1.5,0,0,0,.75-2.8c-4.66-2.69-9.34-5.36-14-8,2.52-.19,5-.39,7.56-.55a1.5,1.5,0,1,0-.2-3q-6,.4-12,.91l-8.34-4.79c6.32-1.11,12.64-2.19,19-3.2l22.82,10.45c5.89,2.67,12.57,5.69,18.3,10.12a1.5,1.5,0,0,0,1.84-2.38c-6-4.64-12.86-7.74-18.9-10.47l-18.7-8.57.65-.1,2.93,0,.14.06a1.4,1.4,0,0,0,.56.11,1.47,1.47,0,0,0,.68-.18l1.72,0a1.48,1.48,0,0,0,1.43-1.07q17.51-2.62,35-4.74a1.5,1.5,0,0,0-.36-3q-19.69,2.37-39.48,5.42-6.1-2.52-12-5.57,26-3.76,52.06-6.47A1.49,1.49,0,0,0,274.79,390.65Zm-52.21-.73q-6.51.94-13,2c-.61-.39-1.2-.8-1.79-1.2Q215.16,390.21,222.58,389.92Zm-10.35,7.16-4.26.65-4.14-1.9,5.09-.8C210,395.72,211.12,396.41,212.23,397.08ZM202.9,391c.76.54,1.53,1,2.3,1.56l-6.24,1-4.24-2Q198.8,391.31,202.9,391Zm-16.59,16.65-4.39-2.61,4.54-.77,4.92,2.82C189.69,407.28,188,407.46,186.31,407.66Zm9.55,2,1.32.75-4.72.87-1.87-1.1C192.35,410,194.1,409.84,195.86,409.68ZM188,412.15l-1.56.3c-.82-.5-1.63-1-2.45-1.5l1.65-.2Zm-28.09-3,2.79,1.88q-4.07.69-8.13,1.44c-.87-.58-1.75-1.16-2.61-1.75C154.62,410.14,157.27,409.61,159.92,409.1Zm-11.38-.81c-.81-.57-1.6-1.14-2.4-1.72,2.56-.53,5.11-1.07,7.67-1.59l2.61,1.75C153.79,407.25,151.16,407.76,148.54,408.29Zm9.41-4.14,5.64-1.13,3.31,1.71-6.32,1.19Zm8.43,9.26,3.53,2.34c-2.56.53-5.13,1.06-7.69,1.61l-4-2.56C160.92,414.31,163.64,413.85,166.38,413.41Zm.69-3.14-2.95-2c2.33-.44,4.65-.89,7-1.32,1.27.7,2.54,1.4,3.8,2.11Q171,409.66,167.07,410.27Zm1.28-8.16,2.06-.39,3.05,1.8-1.84.33Q170,403,168.35,402.11Zm9.62.6-3.11-1.84c1.43-.27,2.87-.52,4.3-.78l3.21,1.84C180.9,402.18,179.44,402.45,178,402.71Zm3.42,5.52-1.61.22c-1.33-.78-2.66-1.54-4-2.3l1.62-.29Zm-2.24,3.33c1,.57,2,1.15,2.93,1.74-2.68.52-5.35,1.05-8,1.59l-3.26-2.15C173.58,412.32,176.36,411.92,179.15,411.56Zm4.59-12.31q7.39-1.32,14.8-2.54l4.06,1.86q-7.8,1.23-15.58,2.57Zm5-7.05,5,2.27q-7,1.2-14,2.47l-5.5-3.16C179,393.2,183.87,392.67,188.7,392.2Zm-19.46,2.19,5.89,3.38-4.17.79-6-3.59C166.37,394.78,167.8,394.57,169.24,394.39Zm-9.08,1.24,6.36,3.77-2.48.48c-2.5-1.27-5-2.5-7.54-3.69ZM151.23,397l1.55.74,1.09.52q2.69,1.26,5.36,2.57c-1.59.32-3.19.63-4.78,1-2.08-1.42-4.16-2.86-6.23-4.29ZM144,398.22l6.42,4.41c-2.5.52-5,1-7.5,1.57-2.07-1.53-4.13-3.09-6.16-4.68C139.13,399.08,141.54,398.64,144,398.22Zm-12.77,8.53-4.48-3.44c-.62-.48-1.25-1-1.86-1.47,2.65-.55,5.3-1.07,8-1.58q3.06,2.43,6.18,4.78Q135.08,405.88,131.19,406.75Zm5.24,4-2.15-1.65c2.63-.58,5.27-1.15,7.9-1.71l2.35,1.69C141.83,409.66,139.13,410.21,136.43,410.78Zm5.44,4.18-2.3-1.77,8.31-1.71,2.49,1.73Q146.11,414.05,141.87,415Zm6.93,5.33-3.8-2.92q4.45-.93,8.93-1.77c1.35.9,2.72,1.78,4.09,2.66C154.94,418.93,151.87,419.6,148.8,420.29Zm5.32,4.09-2.22-1.71q4.88-1.08,9.76-2.12l3.35,2C161.37,423.15,157.74,423.76,154.12,424.38Zm15.6-2.49q-1.91-1.11-3.79-2.25c2.51-.53,5-1.05,7.52-1.56l4.12,2.68Q173.64,421.3,169.72,421.89Zm12.42-1.74-4.49-2.91q4.11-.83,8.22-1.62c1.79,1.11,3.58,2.25,5.35,3.4C188.19,419.38,185.16,419.75,182.14,420.15Zm13.72-1.67c-1.88-1.25-3.78-2.48-5.68-3.69l1.73-.33,6.37,3.77Zm13.06-1.31-5.63.54-6.9-4.08,4.82-.88Zm-7.17-7.57-.65-.38,5-.39Zm-5.23-3-5.42-3.12q8.22-1.38,16.44-2.65l9.53,4.36Q206.78,405.67,196.52,406.6ZM227,404.84l-3.29.1L212.94,400l3.46-.53Q221.59,402.36,227,404.84Z"/><path class="cls-9" d="M348.6,243.4a60.19,60.19,0,0,1-10.72,17c.87.05,1.76.12,2.69.21,9.3.86,24.11,5,37.64,9.29q1.76-3.3,3.17-6.74A75.18,75.18,0,0,0,387.11,238c-6.59-13.67-11.77-23.06-21.56-29.7a34.36,34.36,0,0,0-5.56-2.92,57.84,57.84,0,0,0-9.49-2.87A60.06,60.06,0,0,1,348.6,243.4Z"/><path class="cls-9" d="M329.8,172.74A46.13,46.13,0,0,1,342.56,171h0l-1.56-.6a34.5,34.5,0,0,1-14-10.16,31.18,31.18,0,0,1-11.93,4.2l1.1.43A59.55,59.55,0,0,1,329.8,172.74Z"/><path class="cls-9" d="M270.2,275.9a59.7,59.7,0,0,1-22.69-16.51c.84,7.4,1.27,14.27,1.35,17.36A76.08,76.08,0,0,0,261.37,292c8.13,2.92,16,5.85,22.72,8.43A83.55,83.55,0,0,1,287.5,292l.08-.16a71.43,71.43,0,0,0,4-10.43c.08-.32.15-.66.22-1A59.43,59.43,0,0,1,270.2,275.9Z"/><path class="cls-10" d="M273.22,175.62a11.08,11.08,0,0,1-2-.61,9.88,9.88,0,0,1-2.5-1.52,76.36,76.36,0,0,0-23.64,27.78c.31,1.62.57,3.2.81,4.76A60.4,60.4,0,0,1,273.22,175.62Z"/><path class="cls-10" d="M309.8,171.2a38.93,38.93,0,0,1,11,6.09,22.8,22.8,0,0,1,7.74-4.15l1.3-.4a59.55,59.55,0,0,0-13.6-7.84l-1.1-.43c-7.64,1.23-15.43.49-18.7-.85a6.76,6.76,0,0,1-2.22-1.5c-.15-.16-.3-.35-.45-.54-.8.22-1.61.45-2.4.7a11.7,11.7,0,0,1-.2,2.47,12.47,12.47,0,0,1-2.45,5.31A42.9,42.9,0,0,1,309.8,171.2Z"/><path class="cls-10" d="M332,204.9a37,37,0,0,1-5.9,13.6c-10.5,14.9-23.4,28-34,42.9,1.27-.33,2.49-.69,3.7-1.08,2-6.48,5.49-11.84,12.74-13.25a10,10,0,0,1,5.95.5h0a10.38,10.38,0,0,1,2,1.13A47.65,47.65,0,0,0,332,204.9Z"/><path class="cls-10" d="M282.3,217.3c-13,18.1-17.1,29.8-20,39.4a33,33,0,0,0,8.4,4.2,37.55,37.55,0,0,0,13.7,1.6A302.29,302.29,0,0,1,282.3,217.3Z"/><path class="cls-10" d="M337.88,260.44a60.14,60.14,0,0,0,12.62-57.89c-2.95-.67-5.92-1.2-8.72-1.69l-.71-.13c-1.72-.3-3.37-.6-4.94-.92a48.41,48.41,0,0,1-1,31.49,54.82,54.82,0,0,1-14.78,21.35,33,33,0,0,1,4,8.48A51.08,51.08,0,0,1,337.88,260.44Z"/><path class="cls-10" d="M247.3,244.8c-.66-1.37-1.24-2.74-1.76-4.11-.2.83-.41,1.65-.64,2.46a147.62,147.62,0,0,1,2.61,16.24,59.94,59.94,0,0,0,44.31,21.06c.52-2.28.95-4.77,1.35-7.19l.09-.57c.31-2,.63-4,1-6C276.35,271.08,257.46,265.81,247.3,244.8Z"/><path class="cls-10" d="M266.8,182.3c3.5.6,7.3-.8,10.5,1.6.9.6-.3,2.3-1.4,2.8-1.7.7-3.3-.4-5-.1-6,16.6-7.7,31.2-6,53.9,6.1-13.9,12.1-22.1,17.8-30a136.75,136.75,0,0,1,3.1-20.5c-4.6-1.6-4.9-1.7-4.1-3.1,0,0,1.1-1.8,2.8-1.4.2,0,21.7,6.6,21.9,7,1.2,3.4-3.5,2.3-7.7,1.2-3,19.9-3.2,36.4-3.1,55.8,4.3-6.4,5.7-8.2,10.1-14.3,10.2-11.9,12.6-18.7,10.4-29.5-1.94-9.41.33-13.18,3.28-14.54a11.1,11.1,0,0,1-2.24-7.2,8.79,8.79,0,0,1,1-3.36c-10.44-9-23.11-9.81-34.78-6.32-.24.12-.47.24-.71.34a17.68,17.68,0,0,1-3.06.95A61.77,61.77,0,0,0,266.8,182.3Z"/><path class="cls-10" d="M257.6,252.8c-5.6-27.7-4.8-45.4,3.1-65.3a54.1,54.1,0,0,0-13.91,24.86c.17,1.52.33,3,.46,4.47a72.65,72.65,0,0,1-.39,16.88A44.21,44.21,0,0,0,257.6,252.8Z"/><path class="cls-11" d="M335.1,231.3a48.41,48.41,0,0,0,1-31.49,48.16,48.16,0,0,1-8.68-2.37,8.88,8.88,0,0,1-1.42-.64l-.26-.13a18.52,18.52,0,0,1-6.39-5.51c-2.95,1.36-5.22,5.13-3.28,14.54,2.2,10.8-.2,17.6-10.4,29.5-4.4,6.1-5.8,7.9-10.1,14.3-.1-19.4.1-35.9,3.1-55.8,4.2,1.1,8.9,2.2,7.7-1.2-.2-.4-21.7-7-21.9-7-1.7-.4-2.8,1.4-2.8,1.4-.8,1.4-.5,1.5,4.1,3.1a136.75,136.75,0,0,0-3.1,20.5c-5.7,7.9-11.7,16.1-17.8,30-1.7-22.7,0-37.3,6-53.9,1.7-.3,3.3.8,5,.1,1.1-.5,2.3-2.2,1.4-2.8-3.2-2.4-7-1-10.5-1.6a61.77,61.77,0,0,1,12.75-6.73,16.68,16.68,0,0,1-3.4.37,13.29,13.29,0,0,1-2.93-.32A60.4,60.4,0,0,0,245.94,206q.51,3.25.85,6.33A54.1,54.1,0,0,1,260.7,187.5c-7.9,19.9-8.7,37.6-3.1,65.3a44.21,44.21,0,0,1-10.74-19.09q-.5,3.57-1.32,7c.52,1.37,1.1,2.74,1.76,4.11,10.16,21,29.05,26.28,47,21.9a58.8,58.8,0,0,1,1.54-6.38c-1.21.39-2.43.75-3.7,1.08,10.6-14.9,23.5-28,34-42.9a37,37,0,0,0,5.9-13.6,47.65,47.65,0,0,1-15.46,43.81,15.32,15.32,0,0,1,3.78,3.94A54.82,54.82,0,0,0,335.1,231.3Zm-64.4,29.6a33,33,0,0,1-8.4-4.2c2.9-9.6,7-21.3,20-39.4a302.29,302.29,0,0,0,2.1,45.2A37.55,37.55,0,0,1,270.7,260.9Z"/><path class="cls-11" d="M318.1,180.6a11.34,11.34,0,0,1,2.66-3.31,38.93,38.93,0,0,0-11-6.09,42.9,42.9,0,0,0-21.12-1.14,14.63,14.63,0,0,1-5.36,4.22C295,170.79,307.66,171.56,318.1,180.6Z"/><path class="cls-12" d="M479.58,201.4c-2.59-11.89-7.49-20.55-13.46-23.76-6.79-3.62-13-3.41-17.12.59-5.94,5.76-7.31,19.11,1.58,33.49,7.48,12.11,7.06,26.36-1.18,40.14-8.13,13.41-22.3,24.74-39.11,32.46A130.44,130.44,0,0,1,402,303.81c23-6.38,44.57-18.33,60.59-34.62a55.43,55.43,0,0,0,9-11.91C482.39,238.5,482.8,216.1,479.58,201.4Z"/><path class="cls-12" d="M295.6,141.12l-.89.2c-6.84,1.47-14.12,2.15-17.32,1.62l-.23,0-.31.11s-.09.07-.1.2,0,.1,0,.16a.11.11,0,0,0,0,0l.16.36a1.48,1.48,0,0,0,.19.4.86.86,0,0,0,.07.1c1.57,2.4,6.65,4.37,13.58,5.27l.32,0A19.77,19.77,0,0,1,295.6,141.12Z"/><path class="cls-3" d="M407.6,151.29a64.66,64.66,0,0,0-23.66-17.89l-1.37-.59c-.48-.2-1-.4-1.42-.61-26.92-11.11-55.6-8.91-76.68,5.92-6,4.28-9.47,9-9.92,13.75a10,10,0,0,0,2.31,7.65,3,3,0,0,0,1,.67c4.49,1.83,20.73,2.27,28.4-3.94a1.85,1.85,0,0,1,2.67.35A30.7,30.7,0,0,0,342.41,167a66.22,66.22,0,0,0,17.91,4,1.53,1.53,0,0,1,.37,0l2.91.3a1.86,1.86,0,0,1,.08,3.69q1.08.41,2.13.84a56.71,56.71,0,0,1,17.68,11.37v0h0a1.86,1.86,0,0,1-2.6,2.66A51.6,51.6,0,0,0,365,179.52a2.08,2.08,0,0,1-.36-.2l-.25-.11c-11.76-4.87-24.73-5.83-34.69-2.54-5.46,1.87-8.6,4.56-8.82,7.57-.25,3.18,2.42,6.85,6.62,9.12l.29.15a5.81,5.81,0,0,0,.92.42l.12,0c3.18,1.31,7.73,2.17,12.91,3.09l.71.12c6.1,1.08,13,2.31,19,4.79a37.91,37.91,0,0,1,6.19,3.26c10.62,7.2,16,17,22.9,31.27a1.49,1.49,0,0,1,.18.3l.76,1.64c.07.16.15.32.22.49l1.25,2.62,1.26,2.64a1.76,1.76,0,0,1,.18.8,1.86,1.86,0,0,1-3.54.8l-.58-1.2a78.46,78.46,0,0,1-5.42,20q-1.35,3.28-3,6.47c7.68,2.49,14.72,5,19.8,6.76.92-1.64,1.83-3.33,2.74-5.1,10.93-21.15,18.62-46.88,19.6-65.55a93.88,93.88,0,0,0-.39-15.89l-.06-.51c-.18-1.52-.36-3.1-.62-4.58l-.11-.61a73.15,73.15,0,0,0-6.37-20.56c-1.26-.15-2.54-.31-3.86-.51l-.76-.09a28,28,0,0,1-8.5-2.28,5,5,0,0,1-2.59-3.37,4.3,4.3,0,0,1,1.41-4.21,1.7,1.7,0,0,1,.38-.26l0,0,.41-.31.45-.31a2.51,2.51,0,0,0,.51-.39,2.1,2.1,0,0,1,.41-.31C405.16,152.49,406.28,151.93,407.6,151.29ZM370.3,149a4.4,4.4,0,1,1-4.4-4.4A4.4,4.4,0,0,1,370.3,149Zm-34.9,3.2c-4.4,1.1-4.6.7-8-1.2s-3.1-5.3,1.1-6.4c2.4-.6,5.5-.3,9.7.8C342.5,146.7,340.1,151,335.4,152.2Zm-21.2-15.8a4.4,4.4,0,1,1-4.4,4.4A4.4,4.4,0,0,1,314.2,136.4Z"/><path class="cls-3" d="M286.33,159.26a2.4,2.4,0,0,1-.22-.24,2.5,2.5,0,0,0-.68-.42,8.24,8.24,0,0,0-3.06-.5,18.42,18.42,0,0,0-8.11,2.05c-1,.48-4,2.22-4.64,5.13s.43,5.16,3.11,6.31a11.31,11.31,0,0,0,8.46-.41,10,10,0,0,0,6.28-7.13A5.09,5.09,0,0,0,286.33,159.26Z"/><path class="cls-2" d="M338.2,145.4c-4.2-1.1-7.3-1.4-9.7-.8-4.2,1.1-4.5,4.5-1.1,6.4s3.6,2.3,8,1.2C340.1,151,342.5,146.7,338.2,145.4Z"/><circle class="cls-2" cx="314.2" cy="140.8" r="4.4"/><path class="cls-2" d="M365.9,144.6a4.4,4.4,0,1,0,4.4,4.4A4.4,4.4,0,0,0,365.9,144.6Z"/><path class="cls-3" d="M309.14,271.78c2.51-3.83,5.56-7.54,11.6-9.67-1.93-5.92-4.6-9.83-7.64-11.08a6.21,6.21,0,0,0-3.77-.32c-9.15,1.78-10.72,11.88-12.39,22.58l-.1.58c-.47,2.84-1,5.78-1.63,8.48a73.94,73.94,0,0,1-4.23,11l-.08.18a84.27,84.27,0,0,0-3.34,8.15l4.11,1.59C296.71,293.86,306.19,276.28,309.14,271.78Z"/><path class="cls-3" d="M226.42,275.46a47.37,47.37,0,0,0,4.32,6.21c3.92,1.19,8,2.51,12.22,3.9a17.74,17.74,0,0,0,2.18-8.6,230.89,230.89,0,0,0-2.63-26.67A76.28,76.28,0,0,1,226.42,275.46Z"/><path class="cls-12" d="M460.1,121c-3.8,4.24-8.11,9-10.58,11.2a104.56,104.56,0,0,1-17.64,11.43c-5.95,3.21-12.27,6.15-17.35,8.51-3.45,1.6-6.44,3-8.22,4a7.52,7.52,0,0,1-.88.65l-.31.22-.09.06-.23.17a4.2,4.2,0,0,1-.36.27.57.57,0,0,0-.12.51,1.26,1.26,0,0,0,.61.83,24.48,24.48,0,0,0,7.3,1.92l.8.1c23.9,3.53,36.68-1.14,43.21-5.68a25.32,25.32,0,0,0,6.07-5.79c7.89-10.49,9.29-21.83,8-28.94a26.83,26.83,0,0,0-1.6-6,2.44,2.44,0,0,0-1.71-.8C466.1,114.32,462.78,118,460.1,121Z"/><path class="cls-12" d="M75.49,117.59c-1.76-.49-5-1.78-7.93-2.91-1.58-.61-3.46-1.35-4.41-1.68a14.66,14.66,0,0,0,.52,2c1.07,3.12,4.35,7.51,10.34,10.41a15.65,15.65,0,0,0,4.13,1.35,20.6,20.6,0,0,0,4.09.28A59.42,59.42,0,0,1,92,119.67c-1.64-.08-3.35-.18-5-.31A70,70,0,0,1,75.49,117.59Z"/><path class="cls-3" d="M178.18,154a1.87,1.87,0,0,1,.44,2.6,22.23,22.23,0,0,1-3.45,3.73c-2.54,8.25-5.16,16.93-7.77,25.7l2.1.17a21.55,21.55,0,0,1,6.49-10.9c6.5-5.52,20.65-6.88,26.43-4.84a1.87,1.87,0,1,1-1.24,3.52c-4.75-1.68-17.54-.29-22.77,4.16a18,18,0,0,0-5.58,16.34c.33,1.92,2.22,3.74,4.8,4.65a12,12,0,0,0,11.94-2.71c3.13-2.7,8.94-7.5,12.82-9.38a1.86,1.86,0,0,1,2.64,2l9.12.72a2,2,0,0,1,.79.25,8,8,0,0,1,3.72,7.36c-.26,4.75-4.64,6.68-4.83,6.76a1.83,1.83,0,0,1-.73.15H213l-25.69-2.06a15.42,15.42,0,0,1-6,1.26,14.58,14.58,0,0,1-4.86-.84,13.15,13.15,0,0,1-3-1.52l-10.17-.82c-4.75,16.4-9.25,32.75-12.78,47a40.36,40.36,0,0,0,3.49-5.8c1.37-2.83,2.61-6.11,3.54-8.65l.07-.18c4.09-10.66,8.72-22.74,20.83-22.74a10.42,10.42,0,0,1,6.11,1.83c3.4,2.32,5.28,6.55,6.31,10.93a21,21,0,0,1,7.19-2.35,23.29,23.29,0,0,1,2.74-.21A19,19,0,0,1,210.81,223a1.7,1.7,0,0,1,.35.19,12.84,12.84,0,0,1,4.41,4.7,1.86,1.86,0,0,1-3.28,1.76c-2-3.45-6.64-5.77-11.59-5.77a18.94,18.94,0,0,0-2.27.19,17,17,0,0,0-7,2.57c.15,1.1.25,2.17.33,3.19a57.49,57.49,0,0,1-1.72,19.05c-.17.51-.36,1-.54,1.46s-.33.85-.47,1.27l-.06.15a2,2,0,0,1-.11.32c-.22.51-.42,1-.6,1.42s-.26.66-.39,1a43.56,43.56,0,0,1-13.83,18.44c14.16.59,29.69,2,40.83,4.5,1,.23,2,.47,3.07.73,4.69-3.78,28.87-25.15,25.57-60.94-2.38-25.77-9.47-41.65-16.08-53.78-4.41-8.06-13.53-21.52-18.7-26.78l-2.18-2.21-.78-.78c-2.55-.43-5.22-1-8-1.61l-.88-.19a30.87,30.87,0,0,1-8.57-3,5.15,5.15,0,0,1-2.26-3.13s0,.1,0,.14c-2.55,7.92-5.56,17.45-8.79,27.85A1.87,1.87,0,0,1,178.18,154Z"/><path class="cls-3" d="M188,120.73c.15-.08.37-.23.6-.38l.2-.12.27-.14h0l-1-.57-.15.45c-.08.25-.16.5-.25.76l-.09.27.15-.12Z"/><path class="cls-3" d="M178,119.13l1.37-3.72a104.7,104.7,0,0,0-13.2-4.2c-.91-.25-1.88-.43-2.83-.6l-.44-.08c-18.25-3.25-38.7-.78-55.31,5.59a431,431,0,0,0-23.08,49c11.15,4.4,24.35,3,32.61-1.18,5-2.5,8.12-5.91,8.56-9.34a1.87,1.87,0,0,1,3.61-.38c3.34,9.54,10.84,11.46,21.84,11.46a32.72,32.72,0,0,0,11.37-2.09C168.4,145.23,174.14,129.58,178,119.13Zm-21.87,15a4.9,4.9,0,1,1-4.9,4.9A4.9,4.9,0,0,1,156.1,134.1Zm-54,3.8a4.9,4.9,0,1,1-4.9,4.9A4.9,4.9,0,0,1,102.1,137.9Zm22.8,10.3c-4.7-.7-8-4.8-4.3-6.6s6.5-2.4,8.9-2.1c4.2.6,5.3,4.1,2.6,6.5S129.3,148.8,124.9,148.2Z"/><path class="cls-3" d="M76.24,158.81c4.3-10.65,9-20.78,13.5-29.63q1.42-2.85,2.82-5.54a46.93,46.93,0,0,0-12.74,11.74c-4.33,6.15-6.14,12.55-5.37,19A10.21,10.21,0,0,0,76.24,158.81Z"/><path class="cls-3" d="M151.1,169.36c-8.68,0-18.16-.83-23.41-9.7h0a21.39,21.39,0,0,1-8.94,7.57c-8.78,4.41-23,6.34-35.59,1.35-1,2.76-2,5.51-2.87,8.23l2.72-.15,1.63-.09c4.23-.25,8.82-.51,13-.63,1.4,0,2.77-.06,4.08-.06s2.26,0,3.3.06c8.07.33,15.1.7,21.45,1.22,11.59,1,20.92,2.43,30.12,5.12q2.21-7.4,4.43-14.4A35.78,35.78,0,0,1,151.1,169.36Z"/><path class="cls-2" d="M129.5,139.5c-2.4-.3-5.3.3-8.9,2.1s-.4,5.9,4.3,6.6c4.4.6,4.4.2,7.2-2.2S133.7,140.1,129.5,139.5Z"/><circle class="cls-2" cx="102.1" cy="142.8" r="4.9"/><circle class="cls-2" cx="156.1" cy="139" r="4.9"/><path class="cls-12" d="M250.3,91.22c-4.26,4-9.08,8.56-11.79,10.57a108.67,108.67,0,0,1-19.17,10.32c-6.16,2.69-12.69,5.12-17.93,7.07-4.14,1.54-7.7,2.86-9.72,3.81a2,2,0,0,1-.34.12,4.16,4.16,0,0,0-.57.28l-.23.12c-.25.16-.49.32-.72.45a.81.81,0,0,0-.18.65,1.43,1.43,0,0,0,.64,1,27,27,0,0,0,7.41,2.56l.9.2c24.34,5.69,37.94,2,45.06-2.19a29.45,29.45,0,0,0,6.76-5.44c9-10.14,11.39-21.77,10.63-29.26a25.06,25.06,0,0,0-1.14-6.32l-.05-.09a2.43,2.43,0,0,0-1.71-1C257.37,84.55,253.45,88.25,250.3,91.22Z"/><path class="cls-12" d="M223.58,14.73l-.1.12a10.12,10.12,0,0,0-1.64,3,17.5,17.5,0,0,0-.87,6.82,74,74,0,0,1,8.49-5.25c.33-.89.66-1.7.95-2.33.72-1.38,2.17-3.66,3.58-5.86.71-1.12,1.6-2.52,2.13-3.4a10.8,10.8,0,0,0-1.67.1C231.58,8.2,227.08,10.12,223.58,14.73Z"/><path class="cls-3" d="M216.56,33.07a17.79,17.79,0,0,0-5.42,16.15c.6,3.85,4.86,8.41,7.41,9.72,9.06,4.44,28.3,4.09,37.76-6.58a1.87,1.87,0,0,1,3.07.43c2.1,4.38,10.85,7.59,17.74,8.05,11.42.75,19.88-1.81,21.44-4.72a1.85,1.85,0,0,1,3.35.16c4.9-4.73,15.68-6.7,17-6.92a1.87,1.87,0,0,1,.62,3.68c-3.39.58-12.8,2.89-15.63,6.59a5.22,5.22,0,0,0-1.05,5.16c.67,1.59,2.46,2.67,4.89,3a61.62,61.62,0,0,0,11.73.21l.36,0c5.48-.34,11.08-1,12.15-1.19a1.87,1.87,0,0,1,2.09,1.61v0c2.63,1.06,5.2,2.15,7.65,3.29,1.86.87,4,1.89,6.3,3-3-14.48-12.15-25.64-18-32.3a80,80,0,0,1-16.79-5.72l-.6-.3a20,20,0,0,1-5.37-3.21,3.26,3.26,0,0,1-.92-3.57,3.73,3.73,0,0,1,2.52-2.36,3.41,3.41,0,0,1,.61-.18l.15,0a4.34,4.34,0,0,1,1.9-.21c.62-.07,1.34-.13,2.15-.2A66.65,66.65,0,0,0,295.27,18l-3-.9C264,9.48,235.65,15.44,216.56,33.07ZM283.3,37.3a4.4,4.4,0,1,1-4.4,4.4A4.4,4.4,0,0,1,283.3,37.3Zm-31.7,4.6c3.6-.9,6.2-1,8.2-.4,3.7,1.2,4.1,4.4,1.3,6.1s-2.9,2-6.7.8C250.3,47.1,248.1,43,251.6,41.9ZM239.3,41a4.4,4.4,0,1,1-4.4-4.4A4.4,4.4,0,0,1,239.3,41Z"/><path class="cls-2" d="M254.4,48.4c3.8,1.2,3.9.9,6.7-.8s2.4-4.9-1.3-6.1c-2-.6-4.6-.5-8.2.4C248.1,43,250.3,47.1,254.4,48.4Z"/><path class="cls-2" d="M230.5,41a4.4,4.4,0,1,0,4.4-4.4A4.4,4.4,0,0,0,230.5,41Z"/><path class="cls-2" d="M283.3,46.1a4.4,4.4,0,1,0-4.4-4.4A4.4,4.4,0,0,0,283.3,46.1Z"/><path class="cls-12" d="M311.73,30.55a1.88,1.88,0,0,1-.53,0,.64.64,0,0,0-.41,0h0a3.94,3.94,0,0,1-.54.14h0l-.1,0a18.34,18.34,0,0,0,4,2.24l.1,0,.6.3c15.43,7.09,26.16,7.2,32.43,6a28.4,28.4,0,0,0,6.41-2c9.16-4.16,14.11-10.19,15.68-14.44a16.17,16.17,0,0,0,1-3.13,1.23,1.23,0,0,0-.38-.26c-.87.2-4.61,1.6-7.63,2.73-4.14,1.56-8.83,3.32-11.31,4A99.91,99.91,0,0,1,334.46,29c-5,.48-10.22.77-14.42,1C316.53,30.16,313.5,30.33,311.73,30.55Z"/><path class="cls-3" d="M188.65,55c-1.41,2.15-2.58,5.2-.08,7.5,1.82,1.66,4.92,2.46,8.24,2.12a13.49,13.49,0,0,0,9.64-5.78c1.33-2,1.79-4,1.22-5.48a.42.42,0,0,0,0-.1,2.15,2.15,0,0,0-.53-.76c-1.25-1.19-4.12-2.08-7.51-2.08a18.81,18.81,0,0,0-3.82.38C194.59,51.05,190.67,52,188.65,55Z"/><path class="cls-11" d="M143.35,71.79c.88-.15,1.76-.28,2.64-.4-.52-1.12-1-2.21-1.56-3.29C144.07,69.33,143.71,70.57,143.35,71.79Z"/><path class="cls-11" d="M168.75,70.54q1.32.09,2.64.21c-.46-1.42-.93-2.83-1.4-4.23C169.57,67.87,169.16,69.21,168.75,70.54Z"/><path class="cls-11" d="M156.3,78.08a101,101,0,0,1,24.82,3.13,85.58,85.58,0,0,0,8-5.25c-2.75-3.66-13.56-15.36-16-17.8-3.85-.38-28.44,2.52-33.22,3.63-.85,2.59-3.29,11.69-5.18,18.88A86.28,86.28,0,0,1,156.3,78.08Zm30.8-2.38-5.5,4.1-5.9-17.3ZM168.76,63.65c.78,0,1.57.05,2.35.09a.64.64,0,0,1,.61.5q1.83,5.31,3.6,10.92a.49.49,0,0,1,0,.15.3.3,0,0,1-.1.23.24.24,0,0,1-.21.07c-.64-.09-1.27-.19-1.91-.27a.61.61,0,0,1-.51-.43l-.55-1.65c-1.3-.14-2.59-.26-3.89-.36-.16.5-.33,1-.5,1.51a.46.46,0,0,1-.49.31l-1.93-.14a.28.28,0,0,1-.21-.11.38.38,0,0,1-.11-.23c0-.07,0-.11,0-.14l3.23-10A.55.55,0,0,1,168.76,63.65Zm-8.07.18a.42.42,0,0,1,.26-.12l2.16-.07a.36.36,0,0,1,.27.1.4.4,0,0,1,.12.28c.1,3.36.2,6.72.3,10.1a.34.34,0,0,1-.09.27.32.32,0,0,1-.26.1l-2.12-.07a.37.37,0,0,1-.27-.12.42.42,0,0,1-.12-.27c-.12-3.31-.23-6.62-.36-9.92A.41.41,0,0,1,160.69,63.83Zm-13.94,9.55q-1.94.24-3.87.54l-.43,1.39a.55.55,0,0,1-.48.37l-1.9.31a.29.29,0,0,1-.22,0,.22.22,0,0,1-.11-.18.47.47,0,0,1,0-.12l2.78-9.21a.69.69,0,0,1,.57-.51l2.34-.46a.53.53,0,0,1,.63.3q2,4.11,4,8.53a.39.39,0,0,1,0,.13.25.25,0,0,1-.08.21.28.28,0,0,1-.21.11c-.64.06-1.28.11-1.92.18a.49.49,0,0,1-.52-.26Zm4.22,0a2.31,2.31,0,0,1-.63-1.38.27.27,0,0,1,.08-.22.38.38,0,0,1,.23-.11c.66-.06,1.32-.12,2-.16a.69.69,0,0,1,.3,0,1,1,0,0,1,.25.19,1.54,1.54,0,0,0,.64.53,2.13,2.13,0,0,0,1.1.17,2.54,2.54,0,0,0,1.22-.29.75.75,0,0,0,.41-.69.66.66,0,0,0-.25-.51,2.1,2.1,0,0,0-.73-.32c-.34-.08-.81-.17-1.44-.26a6.53,6.53,0,0,1-2.75-.83,2.27,2.27,0,0,1-1-1.9,2.67,2.67,0,0,1,.43-1.64,3.72,3.72,0,0,1,1.41-1.27,6,6,0,0,1,2.21-.64,5.09,5.09,0,0,1,2.32.24,3.73,3.73,0,0,1,1.54,1,2.45,2.45,0,0,1,.6,1.32.35.35,0,0,1-.08.24.31.31,0,0,1-.22.11l-2.1.11a.57.57,0,0,1-.53-.23.87.87,0,0,0-.49-.49,1.74,1.74,0,0,0-.94-.13,1.76,1.76,0,0,0-1,.31.75.75,0,0,0-.32.67.71.71,0,0,0,.49.62,6.91,6.91,0,0,0,1.7.36,8.52,8.52,0,0,1,2.27.51,2.76,2.76,0,0,1,1.26.94,2.9,2.9,0,0,1,.46,1.55A2.83,2.83,0,0,1,158.9,73a3.47,3.47,0,0,1-1.56,1.17,6.85,6.85,0,0,1-2.33.45,7.06,7.06,0,0,1-2.46-.3A3.6,3.6,0,0,1,151,73.34Z"/><polygon class="cls-13" points="181.6 79.8 187.1 75.7 175.7 62.5 181.6 79.8"/><path class="cls-14" d="M406.59,283.63c-8.63-3.17-48.65-17.62-66.36-19.28-20.51-1.91-24.82,4.67-28,9.47-2.8,4.27-12,21.37-17.1,30.85,4.6,1.8,7.89,3.14,9.26,3.71l.79.33c.41-.25.82-.51,1.25-.76a49.5,49.5,0,0,1,30.24-10.21,50.47,50.47,0,0,1,45.61,29.36A183.31,183.31,0,0,0,393,312,139.1,139.1,0,0,0,406.59,283.63Z"/><path class="cls-4" d="M144.16,276.84c-.24,1.61-.45,3.14-.61,4.53,2.57-.26,5.64-.52,9.14-.72h-.1a13.36,13.36,0,0,1-1.77-.41,3.57,3.57,0,0,1-1.07-.33,17.25,17.25,0,0,1-1.63-.71,2.61,2.61,0,0,1-.71-.3,17.42,17.42,0,0,1-2.49-1.48C144.65,277.22,144.41,277,144.16,276.84Z"/><polygon class="cls-4" points="159.72 278.9 159.72 278.9 159.72 278.9 159.72 278.9"/><path class="cls-4" d="M214.09,281c-12.07-2.75-29.4-4.11-44.4-4.58-.33.24-.7.5-1.13.76l-.13.07v0a4.48,4.48,0,0,1-.59.38l-.13.06-.17.12a4.65,4.65,0,0,1-.64.36c-.09.05-.17.08-.26.14l-.2.12-.39.24a5.44,5.44,0,0,1-.86.41,2.52,2.52,0,0,0-.34.15,2,2,0,0,1-.54.17l-.23.07-.68.24-.6.21a1.85,1.85,0,0,1-.83.29l-.17.05c1.56,0,3.17-.05,4.83-.05,18.76,0,43.72,2.16,69.17,10.68,21.4,7.16,42,15.56,60.44,23.87,1.62-1.24,3.34-2.45,5.14-3.65C287.41,305.42,237.94,286.39,214.09,281Z"/><path class="cls-15" d="M109,214.11a12.88,12.88,0,0,1-2.06-3c-1.92-3.81-2-8.53-.11-14,.09-.28.19-.55.29-.82l-3.29-1.93a25.06,25.06,0,0,1,0,15.9c-2.48,8-8.1,13.78-14.19,15.58a30.17,30.17,0,0,0,4.55,1.89C95.59,227.43,104.74,225,109,214.11Z"/><path class="cls-16" d="M79.89,187.92l.1-.08-.21,0Z"/><path class="cls-17" d="M112.82,269c2.08,5.8,3.15,6.41,4.15,6.54h.23a1.8,1.8,0,0,0,.88-.22c1.14-.61,1.8-2,2.14-4.61,1.07-8.08-1.27-26.52-9.75-34.49-1.5-1.39-5.61-4-11.4-6.31a25.92,25.92,0,0,0,13-13.35l.34.22-.07.13c10.24,5.65,13,6.34,14,6.34a2.12,2.12,0,0,0,.42,0,22.08,22.08,0,0,0,15.51-14.88c3.32-10.75-2.37-16.76-2.65-17a176.44,176.44,0,0,1,20.79,5.58c-6,20.7-11.69,41.48-15.61,58.37-3.38,4.86-6.17,9.79-5.35,14.46a9.64,9.64,0,0,0,1.58,3.81c-.59,3.43-1,6.49-1.26,9.1-2.93,0-8.32.27-15.2.58l-5.31.23a58.09,58.09,0,0,0-5.63-6.59C113.22,274.42,113,271.76,112.82,269ZM108.7,192.9a21.87,21.87,0,0,1,4-5.14c-4.67-.31-9.23-.46-13.62-.49ZM71.42,260.52l1.91-5a61.62,61.62,0,0,1-10.79.57c.05,1.92.13,3.79.22,5.61A55.61,55.61,0,0,1,71.42,260.52Zm7-34.78c1,0,2,0,3,.12L79.83,225a16.76,16.76,0,0,1-8.46-7.57,12.6,12.6,0,0,1-.52-1.19,10.68,10.68,0,0,1-2.07.57,2,2,0,0,1-.31,0,10.45,10.45,0,0,1-3.61-1.16c-.45,4-.77,7.79-1,11A74.71,74.71,0,0,1,78.42,225.74Z"/><path class="cls-18" d="M336.7,396.3c25.74,0,46.6-21.18,46.6-47.3s-20.86-47.3-46.6-47.3-46.6,21.18-46.6,47.3S311,396.3,336.7,396.3Zm0-80.06A32.76,32.76,0,1,1,304.34,349,32.6,32.6,0,0,1,336.7,316.24Z"/><path class="cls-4" d="M308.06,349a28.64,28.64,0,1,0,28.64-29A28.88,28.88,0,0,0,308.06,349Zm28.64-14a14,14,0,1,1-13.8,14A13.92,13.92,0,0,1,336.7,335Z"/><path class="cls-2" d="M336.7,381.76A32.76,32.76,0,1,0,304.34,349,32.6,32.6,0,0,0,336.7,381.76Zm0-61.8a29,29,0,1,1-28.64,29A28.88,28.88,0,0,1,336.7,320Z"/><path class="cls-2" d="M322.9,349a13.8,13.8,0,1,0,13.8-14A13.92,13.92,0,0,0,322.9,349Z"/><path class="cls-13" d="M75.42,260.47a54.09,54.09,0,0,1,8.4.81l4.66-12.36a10.63,10.63,0,0,0-6.3,3,11.87,11.87,0,0,1-4.49,2.49Z"/><path class="cls-18" d="M103.41,276.91l-3.79,9.29a1.86,1.86,0,0,1-1.48,1.15H97.9a1.86,1.86,0,0,1-1.48-.73,14.09,14.09,0,0,0-2.34-2.28l-.84,2.11a36.4,36.4,0,0,1,16.82,30.74c0,20-16,36.26-35.76,36.26S38.54,337.19,38.54,317.2s16-36.26,35.76-36.26A35.12,35.12,0,0,1,86,283l.48-1.2a18.54,18.54,0,0,0-2.26,0A1.87,1.87,0,0,1,82.6,281a1.85,1.85,0,0,1-.22-1.8l4.17-10.26A49.48,49.48,0,0,0,74.3,267.4c-27.61,0-50,22.74-50,50.8S46.69,369,74.3,369s50-22.74,50-50.8A51,51,0,0,0,103.41,276.91Z"/><path class="cls-4" d="M74.3,284.66c-17.67,0-32,14.6-32,32.54s14.37,32.54,32,32.54,32-14.6,32-32.54A32.67,32.67,0,0,0,91.84,290l-7,17.7a14,14,0,1,1-10.5-4.79,13.78,13.78,0,0,1,3.6.49l6.75-17A31.46,31.46,0,0,0,74.3,284.66Z"/><path class="cls-13" d="M106.65,259.08a37.38,37.38,0,0,0-8.94-7.67L86.87,278a17.44,17.44,0,0,1,6.22,1.38,16.64,16.64,0,0,1,4.17,2.73Z"/><path class="cls-19" d="M79.4,246a14.71,14.71,0,0,1,14.1-3.9c10.38,2.43,20,14,23.13,21.52-.53-8-3-19.27-8.71-24.66-2.54-2.36-14.77-9.3-29.54-9.5-14.2-.18-22.57,2.16-29.87,8.36-4,3.42-6.11,6-7.18,7.94C47.1,248.23,73.8,251.31,79.4,246Z"/><path class="cls-3" d="M168.68,272.61c1-.8,1.6-1.42,1.6-1.43l.1-.1.17-.14c5.92-4.66,10.31-9.29,13.93-18,.13-.29.25-.58.37-.89s.33-.82.53-1.27a1.57,1.57,0,0,1,.16-.46l0-.08c.15-.44.32-.87.48-1.3s.33-.85.47-1.27c2.36-7.54,3.24-27.84-4.18-32.87l0,0a6.5,6.5,0,0,0-3.82-1.16h-.13c-9.57,0-13.36,9.89-17.37,20.35l-.06.16c-.95,2.59-2.24,6-3.66,8.94a67.07,67.07,0,0,1-6.66,10.3l-.54.74c-3.83,5.28-7.78,10.74-7.05,14.93.31,1.85,1.64,3.58,4.05,5.3a13.77,13.77,0,0,0,1.95,1.15l.11.06a2,2,0,0,1,.39.14l.2.1c.53.27,1,.44,1.44.63l.17.08h0a3.29,3.29,0,0,1,.43.09,7.15,7.15,0,0,0,1.27.31,2.4,2.4,0,0,1,.68.13,15.49,15.49,0,0,0,1.86.17h2.33c.25,0,.49-.07.74-.09a5.58,5.58,0,0,0,.57-.08l.25,0,.3-.08a5.19,5.19,0,0,0,.73-.18l.56-.15.23-.1c.29-.09.55-.19.81-.28l.89-.32h.05a1.8,1.8,0,0,1,.46-.14l.29-.13a1.09,1.09,0,0,0,.27-.11l.18-.1c.15-.1.27-.18.4-.25s.37-.21.56-.31l.13-.06a2.79,2.79,0,0,1,.86-.53,4.22,4.22,0,0,1,.47-.31,12.66,12.66,0,0,0,1.1-.77,1.76,1.76,0,0,1,.42-.24l0,0Z"/><path class="cls-3" d="M159.6,277l.13,1.86h0l0-1.86Z"/><path class="cls-11" d="M79.61,249.26a14.21,14.21,0,0,1,10-4.14,16,16,0,0,1,3.65.43c10.12,2.36,20.16,14.24,22.91,21.71.2.56.38,1.07.55,1.52a43.53,43.53,0,0,0-.07-5.16c-3.12-7.54-12.75-19.09-23.13-21.52A14.71,14.71,0,0,0,79.4,246c-5.6,5.31-32.3,2.23-38.07-.24a8,8,0,0,0-1,3.08c1.82.94,8.76,2.66,18.3,3.3C69.14,252.85,77,251.77,79.61,249.26Z"/><path class="cls-2" d="M147.89,74.93c.64-.07,1.28-.12,1.92-.18a.28.28,0,0,0,.21-.11.25.25,0,0,0,.08-.21.39.39,0,0,0,0-.13q-2-4.41-4-8.53a.53.53,0,0,0-.63-.3l-2.34.46a.69.69,0,0,0-.57.51l-2.78,9.21a.47.47,0,0,0,0,.12.22.22,0,0,0,.11.18.29.29,0,0,0,.22,0l1.9-.31a.55.55,0,0,0,.48-.37l.43-1.39q1.94-.3,3.87-.54l.62,1.29A.49.49,0,0,0,147.89,74.93Zm-4.54-3.14c.36-1.22.72-2.46,1.08-3.69.52,1.08,1,2.17,1.56,3.29C145.11,71.51,144.23,71.64,143.35,71.79Z"/><path class="cls-2" d="M155,74.6a6.85,6.85,0,0,0,2.33-.45A3.47,3.47,0,0,0,158.9,73a2.83,2.83,0,0,0,.51-1.78,2.9,2.9,0,0,0-.46-1.55,2.76,2.76,0,0,0-1.26-.94,8.52,8.52,0,0,0-2.27-.51,6.91,6.91,0,0,1-1.7-.36.71.71,0,0,1-.49-.62.75.75,0,0,1,.32-.67,1.76,1.76,0,0,1,1-.31,1.74,1.74,0,0,1,.94.13.87.87,0,0,1,.49.49.57.57,0,0,0,.53.23l2.1-.11a.31.31,0,0,0,.22-.11.35.35,0,0,0,.08-.24,2.45,2.45,0,0,0-.6-1.32,3.73,3.73,0,0,0-1.54-1,5.09,5.09,0,0,0-2.32-.24,6,6,0,0,0-2.21.64A3.72,3.72,0,0,0,150.79,66a2.67,2.67,0,0,0-.43,1.64,2.27,2.27,0,0,0,1,1.9,6.53,6.53,0,0,0,2.75.83c.63.09,1.1.18,1.44.26a2.1,2.1,0,0,1,.73.32.66.66,0,0,1,.25.51.75.75,0,0,1-.41.69,2.54,2.54,0,0,1-1.22.29,2.13,2.13,0,0,1-1.1-.17,1.54,1.54,0,0,1-.64-.53,1,1,0,0,0-.25-.19.69.69,0,0,0-.3,0c-.65,0-1.31.1-2,.16a.38.38,0,0,0-.23.11.27.27,0,0,0-.08.22,2.31,2.31,0,0,0,.63,1.38,3.6,3.6,0,0,0,1.58,1A7.06,7.06,0,0,0,155,74.6Z"/><path class="cls-2" d="M160.94,74a.42.42,0,0,0,.12.27.37.37,0,0,0,.27.12l2.12.07a.32.32,0,0,0,.26-.1.34.34,0,0,0,.09-.27c-.1-3.38-.2-6.74-.3-10.1a.4.4,0,0,0-.12-.28.36.36,0,0,0-.27-.1l-2.16.07a.42.42,0,0,0-.26.12.41.41,0,0,0-.11.28C160.71,67.41,160.82,70.72,160.94,74Z"/><path class="cls-2" d="M164.94,74.1s0,.07,0,.14a.38.38,0,0,0,.11.23.28.28,0,0,0,.21.11l1.93.14a.46.46,0,0,0,.49-.31c.17-.51.34-1,.5-1.51,1.3.1,2.59.22,3.89.36l.55,1.65a.61.61,0,0,0,.51.43c.64.08,1.27.18,1.91.27a.24.24,0,0,0,.21-.07.3.3,0,0,0,.1-.23.49.49,0,0,0,0-.15q-1.77-5.61-3.6-10.92a.64.64,0,0,0-.61-.5c-.78,0-1.57-.07-2.35-.09a.55.55,0,0,0-.59.45Zm6.45-3.35q-1.32-.12-2.64-.21c.41-1.33.82-2.67,1.24-4C170.46,67.92,170.93,69.33,171.39,70.75Z"/><path class="cls-20" d="M71.56,183.08h0l2.52,1.46c8.44-.67,16.26-1,23.49-1s14.08.31,20.28.83A13.06,13.06,0,0,1,127,184a10.72,10.72,0,0,1,3,1.53l.53.31a174.55,174.55,0,0,1,30.9,7.42c10-34.3,21-68.75,26.06-83.78l.56-1.65c3.65-10.72,3.65-10.72-1.17-13.32-7-3.76-19.57-7.85-39.85-6-1.84.18-3.73.41-5.63.7-13.31,2-27.29,6.62-30.77,10.41C109.08,101.44,83.84,142.46,71.56,183.08Zm39.26-80,.44-.68a6.38,6.38,0,0,1,.52-.72h0c4.56-4.56,21.45-9,33.75-10.13,18.59-1.59,30.07,2,36.43,5.3,6.74,3.49,5.88,5.9,2.67,14.87l-.57,1.6c-.7,2-1.58,4.33-2.59,7.09-5.19,14.14-13.87,37.81-21.78,64.72a1.86,1.86,0,0,1-.91,1.11,1.82,1.82,0,0,1-.88.22,1.75,1.75,0,0,1-.55-.08c-14.45-4.47-29-5.77-52.43-6.72-4.14-.16-9.71.06-15,.34-1.76.09-3.48.19-5.1.29-2.62.15-5,.29-7.07.37a1.83,1.83,0,0,1-1.55-.72,1.87,1.87,0,0,1-.31-1.69c9.41-30.34,28.71-65.11,34.35-74.29Z"/><path class="cls-2" d="M75.92,178.25a1.87,1.87,0,0,0,.31,1.69,1.83,1.83,0,0,0,1.55.72c2-.08,4.45-.22,7.07-.37,1.62-.1,3.34-.2,5.1-.29,5.26-.28,10.83-.5,15-.34,23.44,1,38,2.25,52.43,6.72a1.75,1.75,0,0,0,.55.08,1.82,1.82,0,0,0,.88-.22,1.86,1.86,0,0,0,.91-1.11c7.91-26.91,16.59-50.58,21.78-64.72,1-2.76,1.89-5.14,2.59-7.09l.57-1.6c3.21-9,4.07-11.38-2.67-14.87-6.36-3.29-17.84-6.89-36.43-5.3-12.3,1.13-29.19,5.57-33.75,10.13h0a6.38,6.38,0,0,0-.52.72l-.44.68-.55.88C104.63,113.14,85.33,147.91,75.92,178.25Zm80.72,4c-9.2-2.69-18.53-4.16-30.12-5.12-6.35-.52-13.38-.89-21.45-1.22q-1.56-.06-3.3-.06c-1.31,0-2.68,0-4.08.06-4.23.12-8.82.38-13,.63l-1.63.09-2.72.15c.88-2.72,1.85-5.47,2.87-8.23,12.55,5,26.81,3.06,35.59-1.35a21.39,21.39,0,0,0,8.94-7.57h0c5.25,8.87,14.73,9.7,23.41,9.7a35.78,35.78,0,0,0,10-1.48Q158.85,174.87,156.64,182.28ZM154.3,98.6c12.2,0,19.9,2.6,24.2,4.8.3.2.7.3,1,.5a25.9,25.9,0,0,1-1,3c-3.3-1.2-6.8-2.2-10.6-3.2h-.2c-1.2-.3-2.4-.5-3.6-.7a104.8,104.8,0,0,0-18-1.6,130.94,130.94,0,0,0-22.4,2.3A96.48,96.48,0,0,1,146.1,99C148.9,98.8,151.7,98.6,154.3,98.6Zm-3.2,67c-11,0-18.5-1.92-21.84-11.46a1.87,1.87,0,0,0-3.61.38c-.44,3.43-3.56,6.84-8.56,9.34-8.26,4.14-21.46,5.58-32.61,1.18a431,431,0,0,1,23.08-49c16.61-6.37,37.06-8.84,55.31-5.59l.44.08c.95.17,1.92.35,2.83.6a104.7,104.7,0,0,1,13.2,4.2L178,119.13c-3.83,10.45-9.57,26.1-15.5,44.42A32.72,32.72,0,0,1,151.1,165.64Z"/><path class="cls-13" d="M69.58,210.27a14.88,14.88,0,0,1-2.26,1.48c-.37.19-.73.34-1.1.49a17.31,17.31,0,0,0,2.18.88,10.51,10.51,0,0,0,1.42-.48A20.23,20.23,0,0,1,69.58,210.27Z"/><path class="cls-13" d="M76.94,190.52l-.72-.42c.09.32.16.65.23,1C76.61,190.9,76.77,190.69,76.94,190.52Z"/><path class="cls-11" d="M67.73,185.27a7.78,7.78,0,0,0-2.41-.37,9.32,9.32,0,0,0-4.18,1c-3.06,1.55-5.46,4.62-6.77,8.64s-1.35,7.3-.09,9.78A10.06,10.06,0,0,0,60.37,209a6.8,6.8,0,0,0,5.24-.59,12.81,12.81,0,0,0,4.58-4.28c.07-.33.12-.66.21-1a13.85,13.85,0,0,1-2,2.54l-6.2-8.8,9.4-6.7a12.63,12.63,0,0,1,.86,7.09c.19-.4.37-.82.57-1.2.35-4.24-1-8-3.52-9.89l-.85-.49,0,0A6.19,6.19,0,0,0,67.73,185.27ZM54.3,202.4a12.38,12.38,0,0,1,.5-7.7,15,15,0,0,1,2.5-4.7l4.9,6.8Z"/><path class="cls-11" d="M100.32,209.15h0c2.46-7.82.71-15.61-3.84-19.1l-1.42-.83,0-.06a9.75,9.75,0,0,0-1.36-.58,11.6,11.6,0,0,0-3.35-.49c-5.91,0-12.63,4.3-15.71,13.7-1.86,5.66-1.86,10.36,0,14a12.42,12.42,0,0,0,4.88,5l0-.06,1.82,1c.64.27,1.26.5,1.84.68C89.78,224.32,97.44,218.41,100.32,209.15Zm-1.42-14a20.7,20.7,0,0,1,.5,14,22.39,22.39,0,0,1-5,8.7L85.7,205Zm-23.6,6.5a21.86,21.86,0,0,1,3.5-7l7,10.2-11.1,8.2C73.8,210.2,73.8,206.4,75.3,201.7Z"/><path class="cls-4" d="M138.63,207.21c2.41-7.77-.9-12.28-1.62-13.15l-2.19-1.29a21.36,21.36,0,0,1-.24,12.59c-1.73,5.43-5.31,10-9.58,12.18a14.13,14.13,0,0,1-1.86.78,19.91,19.91,0,0,0,3,1.21A18.22,18.22,0,0,0,138.63,207.21Z"/><path class="cls-11" d="M110.37,198.28c-1.53,4.54-1.56,8.31-.11,11.19,1.59,3.16,4.69,4.71,7,5.46a7.84,7.84,0,0,0,6-.7c3.41-1.76,6.3-5.49,7.72-10,2-6.35.65-12.67-3-15.49l-1.27-.75,0,0a7.89,7.89,0,0,0-1-.39,9.52,9.52,0,0,0-2.89-.46C117.3,187.11,112.32,192.3,110.37,198.28ZM110,207.7c-.8-2.3-.7-5.3.5-9.1a19.77,19.77,0,0,1,3-5.6l5.8,8.1Zm20.8-3.1a17.49,17.49,0,0,1-4.2,7l-7.3-10.4,11.1-7.9A16,16,0,0,1,130.8,204.6Z"/><path class="cls-13" d="M113.5,193a19.77,19.77,0,0,0-3,5.6c-1.2,3.8-1.3,6.8-.5,9.1l9.3-6.6Z"/><path class="cls-13" d="M126.6,211.6a17.49,17.49,0,0,0,4.2-7,16,16,0,0,0-.4-11.3l-11.1,7.9Z"/><path class="cls-13" d="M54.8,194.7a12.38,12.38,0,0,0-.5,7.7l7.9-5.6L57.3,190A15,15,0,0,0,54.8,194.7Z"/><path class="cls-13" d="M85.8,204.9l-7-10.2a21.86,21.86,0,0,0-3.5,7c-1.5,4.7-1.5,8.5-.6,11.4Z"/><path class="cls-13" d="M94.4,217.9a22.39,22.39,0,0,0,5-8.7,20.7,20.7,0,0,0-.5-14L85.7,205Z"/><path class="cls-13" d="M71.6,190.2l-9.4,6.7,6.2,8.8a13.85,13.85,0,0,0,2-2.54,13.68,13.68,0,0,0,1.5-3.36,17,17,0,0,0,.56-2.51A12.63,12.63,0,0,0,71.6,190.2Z"/></g></g></svg>